<svg id="Layer_2" data-name="Layer 2" xmlns="http://www.w3.org/2000/svg" viewBox="0 0 106.99 72.08"><defs><style>.cls-1{fill:#fff;}</style></defs><title>bodleian-libraries-logo</title><path class="cls-1" d="M79.12,8.21a0.26,0.26,0,0,1-.22-0.11C78.84,8,78.84,7.82,78.78,7.69s0-.22.14-0.22,0.2-.11.2-0.26S79,7,78.89,7H78.63a3.33,3.33,0,0,1-.16-0.53,0.28,0.28,0,0,1,.13-0.24c0.14,0,.25,0,0.24-0.22s-0.14-.17-0.27-0.19a0.59,0.59,0,0,1-.43-0.65,0.21,0.21,0,0,1,.15-0.12c0.15,0,.25-0.07.2-0.21a0.42,0.42,0,0,0-.21-0.23C78.17,4.6,78,4.71,78,4.47s-0.08-.3-0.1-0.45A0.46,0.46,0,0,1,78,3.9a0.68,0.68,0,0,0,.23-0.27c0-.14-0.12-0.16-0.25-0.17a0.67,0.67,0,0,1-.44-0.67,0.42,0.42,0,0,1,.12-0.1,0.65,0.65,0,0,0,.24-0.25c0-.17-0.15-0.21-0.3-0.19A0.24,0.24,0,0,1,77.3,2c0-.16-0.05-0.32-0.07-0.47a0.64,0.64,0,0,0,.2-0.1,0.32,0.32,0,0,0,.09-0.22,0.27,0.27,0,0,0-.18-0.15A0.35,0.35,0,0,1,77.07.53c0.09-.15,0-0.26-0.06-0.29a0.82,0.82,0,0,0-.48,0c-0.13,0-.11.19,0,0.32a0.32,0.32,0,0,1-.24.54,0.73,0.73,0,0,0-.24.17L76.25,1.5a0.57,0.57,0,0,1,.14.09,0.57,0.57,0,0,1-.4.67,0.26,0.26,0,0,0-.19.13,0.39,0.39,0,0,0,.1.26,0.57,0.57,0,0,0,.24.08,3.07,3.07,0,0,1-.08.46c0,0.14-.06.34-0.32,0.24a0.33,0.33,0,0,0-.21.2,0.41,0.41,0,0,0,.15.23,0.94,0.94,0,0,1,.2.15,1.9,1.9,0,0,1-.17.54,1.1,1.1,0,0,1-.26.09,0.5,0.5,0,0,0-.21.24,0.47,0.47,0,0,0,.17.2,0.66,0.66,0,0,1,.13.09,0.52,0.52,0,0,1-.36.7,0.31,0.31,0,0,0-.21.19,0.45,0.45,0,0,0,.17.24,0.82,0.82,0,0,1,.18.12,0.5,0.5,0,0,1-.37.61,0.83,0.83,0,0,0-.26.2l0.22,0.23a0.52,0.52,0,0,1,.15.12,0.63,0.63,0,0,1-.43.66,0.33,0.33,0,0,0-.21.2,0.38,0.38,0,0,0,.15.24,1,1,0,0,0,.22.13,1.06,1.06,0,0,0-.05.21c0,0.22,0,.4-0.33.4a0.29,0.29,0,0,0-.16.21,0.48,0.48,0,0,0,.13.22,0.49,0.49,0,0,1,.12.18c0,0.3,0,.6,0,0.93H74.25c-0.56,0-.67.12-0.67,0.69v0.44H72.89a0.77,0.77,0,0,1,0-.16c0-.22,0-0.44.05-0.65s-0.08-.34-0.33-0.32-0.39,0-.58,0a0.52,0.52,0,0,0-.59.59c0,0.18,0,.36,0,0.55H70.79V11H70V8.2h0.25a0.55,0.55,0,0,0,.24-0.05,0.57,0.57,0,0,0-.05-0.31,0.57,0.57,0,0,0-.2-0.14,0.49,0.49,0,0,1-.17-0.53A0.22,0.22,0,0,1,70.26,7c0.18,0,.21-0.1.21-0.25s-0.12-.19-0.26-0.2A0.23,0.23,0,0,1,70,6.49,0.63,0.63,0,0,1,70,6.14a0.63,0.63,0,0,1,.2-0.23l0.23-.22a0.66,0.66,0,0,0-.24-0.21c-0.15,0-.3,0-0.25-0.23s-0.18-.47.22-0.51a0.28,0.28,0,0,0,.15-0.21,0.24,0.24,0,0,0-.15-0.17,0.51,0.51,0,0,1-.32-0.64A0.22,0.22,0,0,1,70,3.63a0.18,0.18,0,0,0,.22-0.2A0.19,0.19,0,0,0,70,3.19a0.32,0.32,0,0,1-.24-0.12,3.49,3.49,0,0,1,0-.6,0.12,0.12,0,0,1,.09,0c0.14,0,.26,0,0.26-0.2S70,2.06,69.86,2a0.3,0.3,0,0,1-.22-0.38,0.29,0.29,0,0,1,.24-0.34,0.27,0.27,0,0,0,.19-0.18A0.32,0.32,0,0,0,69.9.89c-0.31-.11-0.32-0.1-0.17-0.41A0.24,0.24,0,0,0,69.5.1a1.33,1.33,0,0,0-.38.16L69.2,0.43C69.36,0.77,69.36.77,69,.92a0.28,0.28,0,0,0-.14.22,0.39,0.39,0,0,0,.18.17,0.67,0.67,0,0,1,.18.09,1.93,1.93,0,0,1,0,.55,0.63,0.63,0,0,1-.29.09H68.82c0,0.19-.08.39,0.23,0.38a0.23,0.23,0,0,1,.14.16,1.71,1.71,0,0,1,0,.36,0.22,0.22,0,0,1-.24.26,0.29,0.29,0,0,0-.22.17,0.32,0.32,0,0,0,.17.25c0.2,0,.29.12,0.22,0.28s0.08,0.49-.31.46a0.23,0.23,0,0,0-.17.15,0.28,0.28,0,0,0,.12.22c0.4,0,.22.33,0.25,0.52s-0.15.2-.29,0.21a0.64,0.64,0,0,0-.16.09,0.49,0.49,0,0,1-.2.07A0.33,0.33,0,0,0,68,6c0.15,0.38.08,0.49-.31,0.57a0.29,0.29,0,0,0-.18.17,0.24,0.24,0,0,0,.09.19,1.27,1.27,0,0,0,.25.14,0.57,0.57,0,0,1-.47.62,0.25,0.25,0,0,0-.15.19,0.52,0.52,0,0,0,.16.19,0.57,0.57,0,0,1,.19.25,0.43,0.43,0,0,1-.39.48A0.26,0.26,0,0,0,67,9a0.26,0.26,0,0,0,.13.21,0.22,0.22,0,0,1,.16.31c-0.06.14,0,.36-0.29,0.38a0.32,0.32,0,0,0-.23.17,0.28,0.28,0,0,0,.12.24,0.25,0.25,0,0,1,.12.34,0.38,0.38,0,0,1-.48.35,0.73,0.73,0,0,0-.9.37,1,1,0,0,0-.09.27c0,0.16,0,.33,0,0.5H65.12l0,0c0-.29,0-0.57,0-0.86A0.4,0.4,0,0,0,65,11c-0.37,0-.74,0-1.12,0a0.28,0.28,0,0,0-.09.1,1,1,0,0,0-.17.81c0,0.22-.11.25-0.29,0.26s-0.22-.11-0.22-0.27c0-.31,0-0.62,0-1H62.38c0-.88,0-1.73,0-2.58,0-.19.11-0.2,0.26-0.18a0.28,0.28,0,0,0,.23-0.07,0.36,0.36,0,0,0,0-.28c0-.08-0.18-0.11-0.22-0.19a0.94,0.94,0,0,1-.15-0.46,0.93,0.93,0,0,1,.36-0.26c0.06-.2,0-0.36-0.19-0.34s-0.27,0-.24-0.18-0.18-.45.19-0.51a0.28,0.28,0,0,0,.17-0.2,0.35,0.35,0,0,0-.21-0.22,0.24,0.24,0,0,1-.27-0.31c0-.16-0.13-0.42.22-0.43a0.25,0.25,0,0,0,.15-0.19,0.25,0.25,0,0,0-.17-0.18,0.26,0.26,0,0,1-.26-0.31,0.66,0.66,0,0,0,0-.19c0-.14,0-0.21.16-0.24a0.72,0.72,0,0,0,.24-0.2,0.71,0.71,0,0,0-.25-0.22,0.27,0.27,0,0,1-.24-0.36c0-.16-0.14-0.41.21-0.44a0.56,0.56,0,0,0,.21-0.19A0.56,0.56,0,0,0,62.32,2,0.24,0.24,0,0,1,62,1.77c0-.19-0.08-0.43.24-0.47a0.24,0.24,0,0,0,.13-0.19A0.24,0.24,0,0,0,62.29.93C62,0.84,62,.84,62.08.52a0.41,0.41,0,0,0,0-.35,0.49,0.49,0,0,0-.4,0c-0.15.08-.13,0.23,0,0.38a0.24,0.24,0,0,1-.14.39c-0.17,0-.28.07-0.25,0.23a0.35,0.35,0,0,0,.23.2c0.34,0.07.17,0.31,0.17,0.48a0.57,0.57,0,0,1-.24.21l-0.23.16a0.63,0.63,0,0,0,.2.26c0.2,0,.3.11,0.23,0.27s0.08,0.49-.3.47a0.29,0.29,0,0,0-.18.2c-0.06.31,0.22,0.2,0.38,0.25a1.46,1.46,0,0,1,0,.42,0.8,0.8,0,0,1-.23.28,2.72,2.72,0,0,1-.26.2,3.12,3.12,0,0,0,.23.22,0.49,0.49,0,0,0,.16.05c0,0.05,0,.1,0,0.14,0,0.25.08,0.54-.34,0.53a0.28,0.28,0,0,0-.15.21,0.18,0.18,0,0,0,.23.2c0.18,0,.21.09,0.21,0.24s0,0.44-.19.44a0.38,0.38,0,0,0-.37.28,0.46,0.46,0,0,0,.18.13,0.22,0.22,0,0,1,.28.22,0.45,0.45,0,0,1-.17.49,0.6,0.6,0,0,0-.19.15,0.25,0.25,0,0,0,0,.21A0.24,0.24,0,0,0,61,8.2c0.29-.06.32,0.1,0.32,0.32,0,0.7,0,1.4,0,2.11V11a6.56,6.56,0,0,0-.67,0,0.48,0.48,0,0,0-.28.15,1,1,0,0,0-.16.76c0,0.33,0,.34-0.33.26l-0.17,0a4,4,0,0,1-.05-0.53,0.23,0.23,0,0,1,.15-0.17,0.21,0.21,0,0,0,.23-0.26C60,11,59.93,11,59.79,11a0.24,0.24,0,0,1-.18-0.12,5.24,5.24,0,0,1,0-.63l0.1,0A0.22,0.22,0,0,0,60,9.95c0-.17-0.14-0.2-0.3-0.22a0.28,0.28,0,0,1-.19-0.17,0.87,0.87,0,0,1,0-.4A0.48,0.48,0,0,1,59.69,9a0.54,0.54,0,0,0,.19-0.13c0-.12,0-0.27-0.17-0.27s-0.27-.21-0.26-0.39-0.1-.39.23-0.4a0.29,0.29,0,0,0,.2-0.2,0.36,0.36,0,0,0-.21-0.23C59.37,7.3,59.32,7.22,59.47,7s0-.4-0.21-0.38a1.54,1.54,0,0,0-.4.16l0.07,0.13A1.14,1.14,0,0,1,59,7.2c0,0.21-.18.12-0.28,0.17a0.3,0.3,0,0,0-.14.23,0.4,0.4,0,0,0,.19.19,1.14,1.14,0,0,1,.2.07,0.52,0.52,0,0,1-.28.72,0.3,0.3,0,0,0-.17.22,0.51,0.51,0,0,0,.18.17A0.63,0.63,0,0,1,59,9.2a2.1,2.1,0,0,1,0,.49c-0.17.11-.43-0.08-0.45,0.22s0.19,0.26.39,0.28a3.56,3.56,0,0,0,0,.43c0,0.27-.08.38-0.34,0.34H58.41a0.48,0.48,0,0,0-.58.59c0,0.2,0,.4,0,0.61H57.37V11H56.54a0.51,0.51,0,0,0-.6.6c0,0.16,0,.33,0,0.49H55.55V11H54.78c0-.88,0-1.73,0-2.58A0.16,0.16,0,0,1,55,8.21c0.13,0.05.23,0,.25-0.1a0.46,0.46,0,0,0-.06-0.28A0.79,0.79,0,0,0,55,7.69,0.37,0.37,0,0,1,55.12,7a0.28,0.28,0,0,0,.14-0.2A0.38,0.38,0,0,0,55,6.6c-0.18,0-.28,0-0.25-0.2S54.63,6,55,5.91a0.27,0.27,0,0,0,.18-0.19A0.32,0.32,0,0,0,55,5.49c-0.37,0-.28-0.24-0.3-0.43a0.23,0.23,0,0,1,.26-0.32A0.23,0.23,0,0,0,55,4.56a0.26,0.26,0,0,0-.1-0.19c-0.38,0-.32-0.28-0.38-0.48a0.18,0.18,0,0,1,.19-0.26A0.65,0.65,0,0,0,55,3.43a0.64,0.64,0,0,0-.23-0.22c-0.18,0-.29-0.1-0.26-0.28s-0.15-.46.22-0.52a0.25,0.25,0,0,0,.15-0.2A0.25,0.25,0,0,0,54.71,2a0.28,0.28,0,0,1-.27-0.34c0-.14,0-0.33.22-0.35a0.41,0.41,0,0,0,.17-0.26A0.22,0.22,0,0,0,54.7.93c-0.35-.1-0.36-0.1-0.2-0.43,0.08-.15.06-0.29-0.08-0.34a0.55,0.55,0,0,0-.39,0c-0.14.07-.13,0.2,0,0.34a0.24,0.24,0,0,1-.12.41c-0.13,0-.3,0-0.25.19a0.4,0.4,0,0,0,.25.25c0.31,0.06.15,0.29,0.17,0.44A0.2,0.2,0,0,1,53.8,2c-0.13,0-.27,0-0.23.18a0.64,0.64,0,0,0,.21.26,0.36,0.36,0,0,0,.17,0c0,0.16,0,.3,0,0.43a0.22,0.22,0,0,1-.26.29,0.29,0.29,0,0,0-.18.2c-0.06.31,0.22,0.2,0.38,0.25a3.63,3.63,0,0,1,0,.42,0.26,0.26,0,0,1-.26.29,0.59,0.59,0,0,0-.23.16,3,3,0,0,0,.22.27,0.76,0.76,0,0,1,.21.15,1.09,1.09,0,0,1-.07.45,1.35,1.35,0,0,1-.24.07,0.47,0.47,0,0,0-.21.24,0.17,0.17,0,0,0,.22.2,0.19,0.19,0,0,1,.2.27c0,0.15.09,0.4-.21,0.42s-0.33.11-.25,0.4c0.32,0,.41.11,0.35,0.38a1.65,1.65,0,0,1-.28.4,0.49,0.49,0,0,0-.11.29,0.77,0.77,0,0,0,.26.12,0.48,0.48,0,0,1,.24.19c0,0.85,0,1.69,0,2.57-0.27,0-.52,0-0.77,0a0.3,0.3,0,0,0-.22.16,6.16,6.16,0,0,0-.12.79c0,0.13,0,.27-0.18.27s-0.37,0-.37-0.25c0-.1,0-0.2,0-0.3s0-.24.2-0.23,0.2-.09.19-0.23c0-.31-0.26-0.17-0.46-0.25a3.47,3.47,0,0,1,0-.54,0.5,0.5,0,0,1,.18-0.2L52.39,10a0.76,0.76,0,0,0-.27-0.2,0.2,0.2,0,0,1-.22-0.24,2.39,2.39,0,0,0,0-.3A0.2,0.2,0,0,1,52.1,9a0.28,0.28,0,0,0,.17-0.21,0.25,0.25,0,0,0-.18-0.16,0.22,0.22,0,0,1-.25-0.25c0-.07,0-0.14,0-0.21A0.26,0.26,0,0,1,52,7.79a0.29,0.29,0,0,0,.2-0.17A0.37,0.37,0,0,0,52,7.37c-0.29-.1-0.29-0.09-0.17-0.41a0.35,0.35,0,0,0-.06-0.31,0.6,0.6,0,0,0-.4,0,0.31,0.31,0,0,0-.07.28c0.1,0.23.2,0.42-.18,0.47a0.33,0.33,0,0,0-.14.24,0.24,0.24,0,0,0,.17.14c0.28,0,.27.21,0.25,0.4s0,0.4-.3.39a0.25,0.25,0,0,0-.19.16,0.5,0.5,0,0,0,.16.22,0.66,0.66,0,0,1,.2.19,3.75,3.75,0,0,1,0,.58H51.17a0.22,0.22,0,0,0-.3.22,0.21,0.21,0,0,0,.26.23,0.18,0.18,0,0,1,.14.1,1.76,1.76,0,0,1-.06.59,0.81,0.81,0,0,1-.39.08h0a0.48,0.48,0,0,0-.57.61c0,0.18,0,.36,0,0.54H49.78V11H49a0.54,0.54,0,0,0-.63.66c0,0.16,0,.33,0,0.49H48V11H47.13V8.38c0-.21.12-0.2,0.28-0.17a0.29,0.29,0,0,0,.24-0.09,0.27,0.27,0,0,0,0-.24,2,2,0,0,1-.26-0.23,1.18,1.18,0,0,1-.1-0.48A1.16,1.16,0,0,1,47.49,7a0.33,0.33,0,0,0,.13-0.22,0.35,0.35,0,0,0-.23-0.2c-0.25.06-.24-0.15-0.24-0.25S47,6,47.3,5.91a0.35,0.35,0,0,0,.2-0.17,0.42,0.42,0,0,0-.21-0.25c-0.35,0-.2-0.3-0.27-0.45s0.09-.22.22-0.28a1.09,1.09,0,0,0,.21-0.19c-0.08-.07-0.17-0.13-0.25-0.2A0.76,0.76,0,0,1,47,4.1a1.53,1.53,0,0,1,0-.43l0.1,0c0.14,0,.29,0,0.28-0.21a0.23,0.23,0,0,0-.28-0.25A0.3,0.3,0,0,1,46.87,3a2.27,2.27,0,0,1,0-.48,0.64,0.64,0,0,1,.21-0.08,0.19,0.19,0,0,0,.22-0.21A0.22,0.22,0,0,0,47.05,2a0.39,0.39,0,0,1-.25-0.25,0.3,0.3,0,0,1,.27-0.45,0.27,0.27,0,0,0,.15-0.21A0.27,0.27,0,0,0,47.05.93C46.78,0.87,46.73.77,46.85,0.5a0.36,0.36,0,0,0,0-.3,0.29,0.29,0,0,0-.44,0c-0.15.11-.11,0.24,0,0.38a0.25,0.25,0,0,1-.13.39,1.19,1.19,0,0,0-.27.2,1,1,0,0,0,.25.19c0.27,0.09.19,0.3,0.19,0.48a0.22,0.22,0,0,1-.26.24,0.6,0.6,0,0,0-.24.17,0.61,0.61,0,0,0,.21.24c0.32,0,.22.24,0.23,0.4a0.28,0.28,0,0,1-.29.35,0.29,0.29,0,0,0-.19.21,0.41,0.41,0,0,0,.19.22,0.42,0.42,0,0,0,.19,0,2.64,2.64,0,0,1,0,.49,0.32,0.32,0,0,1-.19.2c-0.11,0-.25,0-0.25.18a0.25,0.25,0,0,0,.24.28,0.24,0.24,0,0,1,.14.15c-0.08.2,0.06,0.53-.33,0.55a0.32,0.32,0,0,0-.15.24,0.42,0.42,0,0,0,.19.16,0.6,0.6,0,0,1,.16.08,0.47,0.47,0,0,1-.28.65,0.62,0.62,0,0,0-.2.19L45.77,7a0.59,0.59,0,0,1,.18.21,0.5,0.5,0,0,1-.29.58,0.28,0.28,0,0,0-.1.26,0.33,0.33,0,0,0,.26.12,0.21,0.21,0,0,1,.26.25c0,0.77,0,1.53,0,2.3a0.78,0.78,0,0,1,0,.16H45.53a0.49,0.49,0,0,0-.51.49c0,0.2,0,.4,0,0.6a0.25,0.25,0,0,1-.16.18,0.43,0.43,0,0,1-.3-0.15,2.12,2.12,0,0,1,0-.58s0.09,0,.12,0l0.25-.23a0.76,0.76,0,0,0-.27-0.2,0.2,0.2,0,0,1-.22-0.24,0.49,0.49,0,0,0,0-.19c-0.07-.21-0.07-0.35.21-0.37a0.36,0.36,0,0,0,.17-0.26,0.49,0.49,0,0,0-.21-0.17,0.57,0.57,0,0,1-.21-0.12,1.26,1.26,0,0,1-.06-0.4A0.2,0.2,0,0,1,44.53,9c0.22,0,.26-0.11.17-0.28a0.25,0.25,0,0,0-.19-0.1,0.26,0.26,0,0,1-.26-0.33c0-.16-0.16-0.44.21-0.45a0.17,0.17,0,0,0,.16-0.28,1.38,1.38,0,0,0-.38-0.26c0-.05,0-0.17,0-0.3a0.66,0.66,0,0,0,0-.3,0.81,0.81,0,0,0-.43,0,0.44,0.44,0,0,0-.06.31,1.88,1.88,0,0,0,.11.37l-0.14,0c-0.16,0-.31,0-0.33.2s0.12,0.24.29,0.25a0.2,0.2,0,0,1,.14.1,0.45,0.45,0,0,1-.43.68c0,0.16-.16.37,0.19,0.39a0.3,0.3,0,0,1,.18.22,2.94,2.94,0,0,1,0,.52l-0.12,0c-0.15,0-.31,0-0.32.19a0.24,0.24,0,0,0,.27.27,0.26,0.26,0,0,1,.16.18,0.43,0.43,0,0,1-.48.59H43.15a0.44,0.44,0,0,0-.51.52c0,0.21,0,.42,0,0.62H42.18V11l-0.07,0H41.26a0.43,0.43,0,0,0-.5.39,1.31,1.31,0,0,0,0,.25c0,0.17,0,.34,0,0.5H40.3V10.95H39.59c0-.86,0-1.69,0-2.52,0-.16,0-0.28.24-0.2a0.28,0.28,0,0,0,.25-0.1A0.43,0.43,0,0,0,40,7.82c0-.06-0.16-0.07-0.2-0.13a1.25,1.25,0,0,1-.15-0.46A0.81,0.81,0,0,1,39.89,7,0.39,0.39,0,0,0,40,6.79a0.32,0.32,0,0,0-.22-0.2c-0.37,0-.15-0.3-0.27-0.43a0.94,0.94,0,0,1,.18-0.25A2.39,2.39,0,0,1,40,5.72a0.74,0.74,0,0,0-.28-0.23,0.21,0.21,0,0,1-.21-0.3c0-.16-0.14-0.41.21-0.44a0.28,0.28,0,0,0,.16-0.21,0.37,0.37,0,0,0-.18-0.17,0.83,0.83,0,0,1-.23-0.1,3.46,3.46,0,0,1,0-.58,0.9,0.9,0,0,1,.11,0,0.58,0.58,0,0,0,.25-0.22,0.21,0.21,0,0,0-.27-0.22c-0.16,0-.22-0.07-0.21-0.21a0.61,0.61,0,0,0,0-.22c-0.07-.22,0-0.32.23-0.35a0.25,0.25,0,0,0,.15-0.19A0.25,0.25,0,0,0,39.52,2c-0.24,0-.28-0.11-0.27-0.31s0-.24,0-0.36a0.54,0.54,0,0,0,.24,0,0.49,0.49,0,0,0,.17-0.25A0.26,0.26,0,0,0,39.49.93c-0.31-.08-0.36-0.16-0.21-0.46a0.29,0.29,0,0,0,0-.21A0.34,0.34,0,0,0,38.88.13a0.24,0.24,0,0,0-.08.4,0.22,0.22,0,0,1-.14.39c-0.12,0-.24,0-0.24.18s0.13,0.2.25,0.27a0.47,0.47,0,0,1,.18.23C38.75,1.73,38.94,2,38.63,2c-0.13,0-.3,0-0.25.18a0.39,0.39,0,0,0,.24.25,0.2,0.2,0,0,1,.17.27,1.44,1.44,0,0,0,0,.21,0.2,0.2,0,0,1-.23.26,0.3,0.3,0,0,0-.2.18,0.17,0.17,0,0,0,.16.25,0.2,0.2,0,0,1,.21.29c0,0.17.05,0.43-.27,0.44a0.28,0.28,0,0,0-.2.17,0.44,0.44,0,0,0,.17.24,0.46,0.46,0,0,0,.2,0c0,0.06,0,.09,0,0.13,0,0.25.08,0.55-.34,0.56a0.26,0.26,0,0,0-.14.21,0.29,0.29,0,0,0,.21.18,0.21,0.21,0,0,1,.22.22c0,0.34-.09.5-0.5,0.53V7l0.07,0a0.8,0.8,0,0,1,.3.24,0.4,0.4,0,0,1-.14.49,0.72,0.72,0,0,0-.21.17,0.3,0.3,0,0,0-.05.24,0.26,0.26,0,0,0,.22.12c0.29-.08.31,0.09,0.31,0.29,0,0.75,0,1.5,0,2.25a0.57,0.57,0,0,1-.37.64,0.73,0.73,0,0,0-.53.88,1.94,1.94,0,0,1,0,.39,0.35,0.35,0,0,1-.43.4c-0.32,0-.14-0.27-0.13-0.39a0.6,0.6,0,0,0,.27-0.24,1.41,1.41,0,0,0-.29-0.33L37,12.16a2.37,2.37,0,0,1-.05-0.49,0.32,0.32,0,0,1,.18-0.24,0.17,0.17,0,0,0,.19-0.24A0.47,0.47,0,0,0,37.09,11a0.58,0.58,0,0,1-.2-0.1,1.57,1.57,0,0,1-.06-0.51A0.32,0.32,0,0,1,37,10.2c0.11,0,.25,0,0.24-0.19A0.25,0.25,0,0,0,37,9.79a0.28,0.28,0,0,1-.19-0.17,1.53,1.53,0,0,1,0-.34A0.21,0.21,0,0,1,37,9a0.6,0.6,0,0,0,.22-0.23A0.57,0.57,0,0,0,37,8.64a0.26,0.26,0,0,1-.26-0.33c0-.16-0.16-0.44.21-0.46a0.3,0.3,0,0,0,.2-0.19,0.36,0.36,0,0,0-.21-0.23C36.63,7.35,36.59,7.3,36.73,7a0.25,0.25,0,0,0,0-.36,0.33,0.33,0,0,0-.42,0l-0.16.12,0.06,0.13c0.18,0.34.18,0.33-.17,0.49a0.27,0.27,0,0,0-.14.21,0.29,0.29,0,0,0,.17.21c0.43,0,.22.33,0.25,0.51s-0.13.24-.29,0.28a0.29,0.29,0,0,0-.19.17A0.41,0.41,0,0,0,36,9a1.29,1.29,0,0,1,.12.06,0.57,0.57,0,0,1,.15.32c-0.06.14,0.07,0.41-.25,0.41a0.57,0.57,0,0,0-.23.15,0.67,0.67,0,0,0,.2.27c0.21,0.07.29,0.16,0.2,0.38a0.35,0.35,0,0,0,0,.16c0,0.17,0,.27-0.23.25a0.17,0.17,0,0,0-.22.21c0,0.13,0,.24.19,0.2a0.23,0.23,0,0,1,.13.15,1.29,1.29,0,0,1,0,.28c0,0.18,0,.36-0.26.34a0.21,0.21,0,0,0,0,.42c0.16,0,.24.07,0.22,0.24a0.23,0.23,0,0,1-.27.23,0.31,0.31,0,0,0-.22.19,0.39,0.39,0,0,0,.14.23,0.85,0.85,0,0,1,.22.19,0.32,0.32,0,0,1-.18.43,2.75,2.75,0,0,0-.35.2,0.75,0.75,0,0,0-.24-0.7c-0.34-.23-0.44.22-0.72,0.15,0-.72,0-1.45,0-2.18a0.18,0.18,0,0,1,.26-0.18,0.29,0.29,0,0,0,.26-0.1,0.32,0.32,0,0,0-.07-0.26,1.7,1.7,0,0,1-.24-0.21,1.57,1.57,0,0,1-.09-0.49,0.2,0.2,0,0,1,.15-0.12A0.19,0.19,0,0,0,34.87,10c0-.18-0.13-0.16-0.25-0.17s-0.22-.25-0.24-0.41-0.05-.32.19-0.31a0.16,0.16,0,0,0,.18-0.23,0.57,0.57,0,0,0-.22-0.18,0.59,0.59,0,0,1-.2-0.14,0.61,0.61,0,0,1-.05-0.34A0.54,0.54,0,0,1,34.45,8l0.25-.23-0.26-.22a0.69,0.69,0,0,1-.23-0.25,1.85,1.85,0,0,1,0-.46,0.44,0.44,0,0,0,.17,0,0.42,0.42,0,0,0,.2-0.18,0.32,0.32,0,0,0-.16-0.25,0.44,0.44,0,0,1-.33-0.56,0.21,0.21,0,0,1,.23-0.24,0.53,0.53,0,0,0,.21-0.15,0.56,0.56,0,0,0-.19-0.22A0.28,0.28,0,0,1,34,4.94c0-.2,0-0.38.28-0.39a0.31,0.31,0,0,0,.16-0.23,0.26,0.26,0,0,0-.18-0.17C34,4.1,33.95,4,34.09,3.74A0.22,0.22,0,0,0,34,3.38a0.42,0.42,0,0,0-.36,0,0.4,0.4,0,0,0,0,.35,0.26,0.26,0,0,1-.19.41,0.69,0.69,0,0,0-.21.21,0.57,0.57,0,0,0,.2.16c0.34,0.05.21,0.31,0.24,0.5s-0.08.22-.25,0.24a0.66,0.66,0,0,0-.25.17,0.65,0.65,0,0,0,.23.25A0.21,0.21,0,0,1,33.6,6c0,0.15,0,.3-0.07.45l-0.08-.07-0.35.26,0.32,0.34,0.07,0c0,0.12,0,.24,0,0.36s0,0.35-.28.33a0.23,0.23,0,0,0-.15.16A0.36,0.36,0,0,0,33.2,8c0.29,0,.26.21,0.22,0.37s0,0.42-.31.38a0.25,0.25,0,0,0-.16.18,0.34,0.34,0,0,0,.16.19,1.19,1.19,0,0,1,.19.07,0.47,0.47,0,0,1-.29.66,0.28,0.28,0,0,0-.17.19,0.23,0.23,0,0,0,.14.18,0.26,0.26,0,0,1,.25.31,0.54,0.54,0,0,1-.29.48,0.7,0.7,0,0,0-.13.26,0.92,0.92,0,0,0,.28.12,0.21,0.21,0,0,1,.25.24c0,0.9,0,1.79,0,2.69a0.31,0.31,0,0,1-.13.23,0.7,0.7,0,0,0-.42.84c0,0.09,0,.19,0,0.28a0.32,0.32,0,0,1-.33.4,1.29,1.29,0,0,0,0-.33,0.67,0.67,0,0,0-.16-0.27,0.39,0.39,0,0,0-.57,0A2.09,2.09,0,0,0,31,16a2,2,0,0,0,0,.9,0.34,0.34,0,0,1-.32.35,0.89,0.89,0,0,1,0-.2,0.43,0.43,0,0,0-.33-0.47,0.58,0.58,0,0,0-.35.11c-0.13.06-.24,0.14-0.36,0.21a0.18,0.18,0,0,1-.05-0.06c0-.64,0-1.27,0-1.91,0-.16.13-0.19,0.28-0.18A0.32,0.32,0,0,0,30,14.64a0.49,0.49,0,0,0-.08-0.29,0.43,0.43,0,0,0-.17-0.09,0.42,0.42,0,0,1-.16-0.51,0.82,0.82,0,0,1,.22-0.19A0.39,0.39,0,0,0,30,13.32a0.3,0.3,0,0,0-.22-0.19c-0.19,0-.29-0.08-0.26-0.26s-0.13-.39.19-0.43a0.29,0.29,0,0,0,.18-0.2A0.27,0.27,0,0,0,29.75,12c-0.32,0-.29-0.21-0.34-0.41a0.24,0.24,0,0,1,.19-0.34,0.27,0.27,0,0,0,.16-0.19,0.25,0.25,0,0,0-.16-0.18,0.27,0.27,0,0,1-.27-0.31c0-.13,0-0.26,0-0.39l0.06,0A0.87,0.87,0,0,0,29.7,10c0-.21-0.19-0.17-0.32-0.23a0.48,0.48,0,0,1-.15-0.57A0.56,0.56,0,0,1,29.42,9a0.54,0.54,0,0,0,.17-0.21,0.25,0.25,0,0,0-.17-0.17,0.27,0.27,0,0,1-.26-0.34c0-.19,0-0.38.26-0.4a0.25,0.25,0,0,0,.17-0.18,0.26,0.26,0,0,0-.17-0.19c-0.27-.06-0.32-0.15-0.23-0.41a0.49,0.49,0,0,0,.05-0.25C29.19,6.57,29,6.61,28.82,6.65s-0.2.18-.12,0.35c0.15,0.33.11,0.39-.22,0.47a0.24,0.24,0,0,0-.15.17,0.36,0.36,0,0,0,.16.21,1.3,1.3,0,0,1,.25.08,0.46,0.46,0,0,1-.29.66,0.26,0.26,0,0,0-.17.18,0.25,0.25,0,0,0,.16.19c0.32,0,.28.24,0.27,0.44s0,0.36-.31.36a0.25,0.25,0,0,0-.18.14,0.62,0.62,0,0,0,.15.29,0.46,0.46,0,0,0,.23,0,1.57,1.57,0,0,1,0,.45,0.4,0.4,0,0,1-.25.25c-0.14,0-.25.07-0.23,0.2a0.33,0.33,0,0,0,.21.22c0.43,0.09.14,0.37,0.16,0.56S28.4,12,28.25,12a0.6,0.6,0,0,0-.25.19,0.55,0.55,0,0,0,.19.22c0.34,0,.24.24,0.24,0.41a0.27,0.27,0,0,1-.3.33,0.25,0.25,0,0,0-.18.16,0.28,0.28,0,0,0,.16.21,0.21,0.21,0,0,1,.21.25,0.48,0.48,0,0,1-.27.52,0.45,0.45,0,0,0-.11.31,0.36,0.36,0,0,0,.24.09c0.23,0,.26.1,0.25,0.29,0,1.48,0,3,0,4.44q0,5-.06,10a1.07,1.07,0,0,1-.07.37c-0.14.35-.29,0.7-0.43,1.05a0.41,0.41,0,0,0,0,.07l0.23,0v9.28l-0.24,0v0.49h1c0.06,0.24,0,.34-0.25.33s-0.47,0-.71,0l0,0.08L28,41.37c0,0.11,0,.27-0.2.21v0.24h1v0.3h-1a0.5,0.5,0,0,1,0,.8l0.09,0h0.94v0.33h-1l-0.08,0c0.36,0.23.21,0.48,0,.75h1v0.32H28c-0.18,0-.2.07-0.14,0.21H79c0.07-.19,0-0.21-0.17-0.21h-1c-0.07-.27,0-0.35.27-0.34s0.61,0,.91,0c0.1-.35-0.22-0.15-0.3-0.27a1,1,0,0,1,0-.12c0-.05,0-0.1,0-0.15,0.29,0,.29,0,0.27-0.24H77.92V43h1.14l0-.08-0.17-.14a0.53,0.53,0,0,1-.18-0.2,0.46,0.46,0,0,1,.17-0.18l0.17-.15L79,42.11H77.84l0-.28h1.19V41.57l-0.28,0c-0.06-.16-0.08-0.28.15-0.31a0.43,0.43,0,0,0,.16-0.16,4.61,4.61,0,0,0-1-.05c-0.26,0-.3-0.1-0.24-0.34h1.18V40.24h-2a0.2,0.2,0,0,0-.15.09,3.87,3.87,0,0,0-.21.6,1.76,1.76,0,0,0,0,.4H76V40.22H75.16c0.43-.28.81-0.51,1.17-0.77A1.69,1.69,0,0,1,77.57,39a9,9,0,0,0,1,0h0.56V8.65l0.07,0a0.72,0.72,0,0,0,.24-0.29A0.22,0.22,0,0,0,79.12,8.21ZM75,10a0.2,0.2,0,0,1,.06-0.14l0.65-.41v0.5L75.83,10A0.74,0.74,0,0,0,76,9.64a0.65,0.65,0,0,1,.46-0.73l0.27-.15c0,0.36,0,.71,0,1.05a0.23,0.23,0,0,1-.09.16L75.1,11H75C75,10.68,75,10.32,75,10Zm0,1.71a0.26,0.26,0,0,1,.07-0.19l1.59-1,0.11,0c0,1.45,0,2.87,0,4.3a0.32,0.32,0,0,1-.12.23c-0.51.35-1,.68-1.54,1A0.37,0.37,0,0,1,75,16C75,14.53,75,13.1,75,11.67Zm0.77,11.07s0,0.06,0,.08a0.68,0.68,0,0,1-.56.83c0-.16,0-0.3,0-0.44a0.31,0.31,0,0,0-.15-0.37A0.3,0.3,0,0,1,75,22.63q0-3,0-5.93a0.3,0.3,0,0,1,.1-0.21l1.63-1.11c0,0.13,0,.22,0,0.3,0,1.9,0,3.8,0,5.71a0.31,0.31,0,0,1-.18.33,3.18,3.18,0,0,1-.38.25A0.61,0.61,0,0,0,75.79,22.75Zm-0.94.65v1l1.06-.66a1.16,1.16,0,0,1,.16-0.1,0.4,0.4,0,0,0,.26-0.56,1.2,1.2,0,0,1,0-.65A1.49,1.49,0,0,1,76.75,22a2.23,2.23,0,0,1,0,.29q0,3.8,0,7.59a0.42,0.42,0,0,1-.26.39c-1,.65-2,1.32-3,2l-2.87,1.86-0.15.06V33.86c0-2.48,0-5,0-7.45a0.43,0.43,0,0,1,.34-0.49V27c0.43-.27.81-0.54,1.21-0.77a0.66,0.66,0,0,0,.4-0.76c0-.05,0-0.11,0-0.17a0.58,0.58,0,0,1,.49-0.73v1.08a6.05,6.05,0,0,1,.86-0.55A0.93,0.93,0,0,0,74.36,24C74.32,23.61,74.43,23.52,74.85,23.4ZM74.79,35.27a7.58,7.58,0,0,1,.42-2.46l0.12-.35H75.4a9,9,0,0,1,.16,1.17c0,1.56,0,3.12,0,4.68a0.39,0.39,0,0,1-.21.4L74.8,39V38.71C74.8,37.57,74.82,36.42,74.79,35.27Zm0.28-3.48-0.29,1C74.85,32.46,74.52,32,75.07,31.79Zm1.3,11.48V43h1.3v0.3h-1.3Zm0.54,0.55H75.42v-0.3h1.47v0.3Zm0-1.11H75.45c-0.08-.33-0.05-0.36.27-0.37H76.9v0.37ZM76.11,43v0.3H74.53V43h1.58ZM30.52,35.21a0.8,0.8,0,0,1,.95.17,0.65,0.65,0,0,1,.12.37c0,0.73,0,1.46,0,2.19V40a0.34,0.34,0,0,1,0,.16,1.61,1.61,0,0,0-.29,1.07,0.25,0.25,0,0,1-.17.09,5,5,0,0,1-.72,0,0.28,0.28,0,0,1-.19-0.19c0-1.75-.05-3.5-0.06-5.25A0.6,0.6,0,0,1,30.52,35.21ZM30.44,34a2.51,2.51,0,0,1,1.16-1.24c0,0.55,0,1,0,1.54a0.57,0.57,0,0,1-.78.49A0.53,0.53,0,0,1,30.44,34Zm8.65-15.47V17.41h0.5c0,0.31,0,.62,0,0.93s0,0.29.26,0.28c0.39,0,.79,0,1.18,0,0-.35,0-0.67,0-1s0.12-.24.3-0.24a0.21,0.21,0,0,1,.26.25c0,0.31,0,.63,0,1H43c0-.26,0-0.52,0-0.77,0-.45,0-0.45.51-0.41V20H37V17.41h0.58v1.13h1.45Zm4.49,7H42.41V25.13c0-.49,0-1,0-1.47a0.5,0.5,0,0,1,.58-0.5c0.44,0,.6.19,0.59,0.5C43.56,24.28,43.58,24.9,43.58,25.54Zm0.06,0.83q0,0.91,0,1.83v0.22H42.41V27.56c0-.39,0-0.77,0-1.16a0.54,0.54,0,0,1,.54-0.59A0.56,0.56,0,0,1,43.63,26.37Zm-1.11-3.84c0-.28,0-0.55,0-0.84a1.1,1.1,0,0,1,.83.66,0.36,0.36,0,0,1-.12.48,0.82,0.82,0,0,1-.51.05A0.28,0.28,0,0,1,42.52,22.53Zm1-.68a1.88,1.88,0,0,0-2.7.07c0-.45,0-0.82,0-1.19,0-.14,0-0.23.2-0.23h2.5v1.35Zm-4.92,3.68c0-.67,0-1.32,0-2a0.43,0.43,0,0,1,.4-0.38,0.55,0.55,0,0,1,.76.57c0,0.59,0,1.18,0,1.78H38.64Zm1.16,2.89H38.64c0-.74,0-1.46,0-2.18a0.56,0.56,0,0,1,.7-0.41,0.44,0.44,0,0,1,.46.5C39.81,27,39.81,27.7,39.81,28.42ZM38.7,21.66a1.33,1.33,0,0,1,.79.54,0.48,0.48,0,0,1,0,.6,0.61,0.61,0,0,1-.49.12,0.41,0.41,0,0,1-.31-0.48C38.71,22.19,38.7,21.94,38.7,21.66Zm1.1,0.24a1.86,1.86,0,0,0-2.7,0V20.5h2.7v1.4Zm-2,1.27a0.46,0.46,0,0,1,.47.55c0,0.6,0,1.2,0,1.82H37.09c0-.64,0-1.26,0-1.89A0.57,0.57,0,0,1,37.79,23.17Zm-0.39-.91a1.21,1.21,0,0,1,.85-0.59c0,0.29,0,.57,0,0.85a0.37,0.37,0,0,1-.31.4,0.7,0.7,0,0,1-.5-0.12A0.39,0.39,0,0,1,37.41,22.26Zm-0.31,4a0.58,0.58,0,0,1,.74-0.43,0.44,0.44,0,0,1,.42.49c0,0.69,0,1.38,0,2.1H37.09C37.09,27.68,37.08,27,37.1,26.25Zm0,2.59h2.68v1.63H37.11V28.84Zm0,2h6.12v2.44a3.55,3.55,0,0,0-6.12,0V30.88Zm3-.63q0-4.71,0-9.41a1.18,1.18,0,0,1,.1-0.33,1.12,1.12,0,0,1,.11.33q0,4.73,0,9.47v0.27l-0.09,0a1.15,1.15,0,0,1-.12-0.19A0.47,0.47,0,0,1,40.14,30.25Zm0.72-3.87a0.48,0.48,0,0,1,.38-0.53A0.69,0.69,0,0,1,42,26a0.23,0.23,0,0,1,0,.12c0,0.75,0,1.49,0,2.26H40.86V27.85C40.86,27.36,40.86,26.87,40.86,26.38Zm0-.85V24.74c0-.31,0-0.63,0-0.94a0.63,0.63,0,0,1,1-.56,0.4,0.4,0,0,1,.19.3c0,0.65,0,1.31,0,2H40.86Zm0.36-3.3a1.06,1.06,0,0,1,.8-0.56c0,0.3,0,.59,0,0.87a0.39,0.39,0,0,1-.32.39,0.35,0.35,0,0,1-.48-0.17A0.8,0.8,0,0,1,41.23,22.23ZM37.09,40c0-1.71,0-3.42,0-5.13a2.82,2.82,0,0,1,1.19-2.3,2.92,2.92,0,0,1,2-.62,3,3,0,0,1,3,2.54,3.86,3.86,0,0,1,.06.65c0,1.62,0,3.23,0,4.85v0.31H42.91V40c0-1.64,0-3.29,0-4.93a2.6,2.6,0,0,0-.58-1.74,2.73,2.73,0,0,0-4.69.73,2.4,2.4,0,0,0-.16.82c0,1.7,0,3.4,0,5.1v0.33H37.09V40Zm10.65-9.4V20.83a0.23,0.23,0,0,1,0-.08l0.11-.24a0.74,0.74,0,0,1,.1.25q0,3.41,0,6.81,0,1.37,0,2.74C48,30.44,48,30.61,47.74,30.58Zm2.77,0.29a0.27,0.27,0,0,1,.34.35c0,0.61,0,1.22,0,1.83,0,0.09,0,.17,0,0.34a3.48,3.48,0,0,0-3.06-1.83,3.43,3.43,0,0,0-3.07,1.75V30.88h5.81Zm0.67-5.33H50V24.71c0-.33,0-0.67,0-1s0.08-.51.58-0.55a0.51,0.51,0,0,1,.6.56C51.15,24.32,51.17,24.92,51.17,25.53Zm0,0.81c0,0.68,0,1.36,0,2.07H50c0-.73,0-1.45,0-2.17a0.57,0.57,0,0,1,.82-0.39A0.44,0.44,0,0,1,51.18,26.34Zm-1.11-4.66a1.08,1.08,0,0,1,.89.81,0.42,0.42,0,0,1-.34.45,0.44,0.44,0,0,1-.54-0.38C50.05,22.27,50.07,22,50.07,21.68Zm1.09,0.18a2,2,0,0,0-2.69,0V20.52h2.69v1.35Zm-1.49-.2a9.3,9.3,0,0,1-.16,1.08,0.39,0.39,0,0,1-.57.16,0.43,0.43,0,0,1-.21-0.54A1.21,1.21,0,0,1,49.67,21.66ZM49,23.16c0.48,0,.66.11,0.63,0.59s0,1.17,0,1.78H48.46V24.36c0-.22,0-0.44,0-0.66A0.51,0.51,0,0,1,49,23.16Zm-0.54,3.19a0.52,0.52,0,0,1,.61-0.53,0.46,0.46,0,0,1,.55.52c0,0.68,0,1.36,0,2.08H48.46V27.68C48.46,27.23,48.46,26.79,48.46,26.35Zm6.82-5.49a0.33,0.33,0,0,1,0-.11c0-.08.07-0.16,0.11-0.25a0.73,0.73,0,0,1,.1.25q0,4.83,0,9.66c0,0.05,0,.11,0,0.23a1,1,0,0,1-.19-0.21,0.62,0.62,0,0,1,0-.22Q55.28,25.54,55.28,20.86Zm3.09,10v2.45a3.53,3.53,0,0,0-6.13,0V30.89h6.13ZM61.75,18.6V17.47H62.2v1.12h1.44V17.46h0.44v1.15c0.46,0,.89,0,1.32,0a0.29,0.29,0,0,0,.13-0.22c0-.3,0-0.6,0-0.92h0.39v0.9c0,0.46,0,.92,0,1.39,0,0.17,0,.25-0.23.25H59.88l-0.1,0V17.47h0.6V18.6h1.38Zm6.39-3.08c0,0.17,0,.33,0,0.52H66.37c0-.33,0-0.67,0-1a0.34,0.34,0,0,1,.14-0.14h0.05c0.52,0,.51,0,0.52.48,0,0.07,0,.14,0,0.23h0.31V14.95l0.07,0C68.3,14.89,68.12,14.82,68.14,15.52Zm0,0.94v0.39c0,1.15,0,2.31,0,3.46a0.24,0.24,0,0,1-.3.3c-0.41,0-.83,0-1.25,0-0.14,0-.23,0-0.23-0.19,0-1.31,0-2.62,0-4h1.77ZM67.78,40.2a0.42,0.42,0,0,1,0-.21c0-.62,0-1.24,0-1.86,0-.12,0-0.28-0.17-0.28s-0.16.17-.16,0.29c0,0.69,0,1.38,0,2.08H67.09V39.4c0-.44,0-0.89,0-1.33a0.58,0.58,0,0,0-.14-0.22,0.73,0.73,0,0,0-.21.17,0.58,0.58,0,0,0,0,.27c0,0.64,0,1.27,0,1.93H66.38V37.49h1.74a1,1,0,0,1,0,.15q0,1.75,0,3.49c0,0.13,0,.28-0.22.19,0-.23,0-0.47,0-0.71S68,40.28,67.78,40.2Zm-0.42.56V41H66.6V40.75h0.75Zm-1-19.5V21h1.76V31.25H66.51a0.24,0.24,0,0,1-.14-0.13,0.39,0.39,0,0,1,0-.16Q66.37,26.1,66.37,21.25Zm0,10.72V31.65h1.75v5.44H67.75V36.8q0-2.18,0-4.35a0.57,0.57,0,0,0,0-.22A0.86,0.86,0,0,0,67.58,32a0.59,0.59,0,0,0-.15.21,4,4,0,0,0,0,.53v4.31l-0.33,0V36.8q0-2.2,0-4.41c0-.15,0-0.34-0.18-0.34s-0.21.18-.21,0.35q0,2.2,0,4.41v0.3c-0.29,0-.34-0.08-0.34-0.34C66.38,35.17,66.37,33.57,66.37,32Zm1,9.28v0.34H65.45V41.25h1.91ZM61.6,42.73c-0.45,0-.89,0-1.32,0a0.25,0.25,0,0,1-.16-0.18,0.28,0.28,0,0,1,.18-0.19c0.37,0,.74,0,1.11,0S61.57,42.56,61.6,42.73ZM61,42.11l0-.29h1.47v0.29H61Zm0.1-6.86a0.64,0.64,0,0,1,.73.72q0,2,0,4a0.47,0.47,0,0,1,0,.26,1.46,1.46,0,0,0-.23,1.1c-0.34,0-.63,0-0.92,0a0.28,0.28,0,0,1-.19-0.19c0-.51-0.06-1-0.06-1.54,0-1.21,0-2.42,0-3.63A0.63,0.63,0,0,1,61.15,35.25Zm-0.47-1.11a2.59,2.59,0,0,1,1.23-1.26c0,0.59,0,1.1-.09,1.62a0.43,0.43,0,0,1-.36.42,0.63,0.63,0,0,1-.73-0.25A0.71,0.71,0,0,1,60.67,34.13Zm2.1,1.11a0.65,0.65,0,0,1,.82.56c0,1.47,0,2.93,0,4.43-0.44,0-.85,0-1.25,0-0.2,0-.25-0.08-0.25-0.27,0-.72,0-1.43.06-2.15s0-1.31,0-2A0.61,0.61,0,0,1,62.77,35.24Zm-0.61-1.06a9.15,9.15,0,0,1,.16-0.93,0.52,0.52,0,0,1,.05-0.12,0.55,0.55,0,0,1,.54-0.38,0.61,0.61,0,0,1,.49.42,1.19,1.19,0,0,1,.12.38c0,0.21,0,.41.07,0.62a0.72,0.72,0,0,1-1.05.74A0.63,0.63,0,0,1,62.16,34.18Zm1.25,6.57V41H62.78l0-.25h0.65Zm-0.89,0V41H61.95V40.75h0.58Zm0.88,0.5v0.33H61.95l0-.33h1.48Zm-1.58,1.09c0.53,0,1,0,1.57,0a0.23,0.23,0,0,1,.13.18,0.26,0.26,0,0,1-.16.19c-0.51,0-1,0-1.54,0V42.34Zm1-.24V41.82h1.68V42.1H62.79Zm1.09-6.24a0.66,0.66,0,0,1,.8-0.62,0.55,0.55,0,0,1,.58.63c0,1.38,0,2.77,0,4.15a1.93,1.93,0,0,1-.13.43c-0.07.28-.14,0.57-0.22,0.88H64a0.13,0.13,0,0,1,0,0C63.83,39.49,63.87,37.67,63.88,35.86Zm0-3A2.69,2.69,0,0,1,65,34.11a0.55,0.55,0,0,1-.09.63,0.68,0.68,0,0,1-.71.15,0.56,0.56,0,0,1-.37-0.57C63.87,33.86,63.87,33.4,63.87,32.87Zm0,9.49c0.49,0,1,0,1.47,0,0.27,0,.17.2,0.19,0.39-0.57,0-1.12,0-1.66,0A0.19,0.19,0,0,1,63.88,42.35Zm0.82-.24,0-.28h1.63l0,0.28H64.71Zm1.07,0.23c0.46,0,.92,0,1.38,0a0.7,0.7,0,0,1,.21.29l-0.08.07h-1.5V42.34ZM66.36,41H65.45l0-.25h0.94V41ZM60.88,22.49a0.38,0.38,0,0,1-.28.42,0.48,0.48,0,0,1-.4,0,0.72,0.72,0,0,1-.12-0.55,1.13,1.13,0,0,1,.8-0.66C60.88,22,60.88,22.22,60.88,22.49Zm0.39,5.93V27.76c0-.49,0-1,0-1.46a0.44,0.44,0,0,1,.55-0.48,0.43,0.43,0,0,1,.5.47c0,0.7,0,1.4,0,2.13H61.27Zm1,0.41v1.63H59.84V28.83H62.3Zm-1-3.3c0-.69,0-1.38,0-2.07a0.5,0.5,0,0,1,.62-0.31,0.41,0.41,0,0,1,.42.41c0,0.64,0,1.29,0,2H61.27Zm0-3c0-.27,0-0.55,0-0.85a1.18,1.18,0,0,1,.79.7,0.41,0.41,0,0,1-.14.48,0.49,0.49,0,0,1-.41.07A0.36,0.36,0,0,1,61.32,22.51Zm1-.62a1.52,1.52,0,0,0-1.23-.56,1.61,1.61,0,0,0-1.22.53V20.48H62.3v1.41Zm-1.85,1.27a0.42,0.42,0,0,1,.43.43c0,0.64,0,1.28,0,1.94H59.83c0-.67,0-1.33,0-2A0.49,0.49,0,0,1,60.45,23.16Zm-0.62,3.09c0-.32.19-0.44,0.63-0.43a0.38,0.38,0,0,1,.42.44c0,0.71,0,1.42,0,2.15H59.83C59.83,27.67,59.82,27,59.83,26.25Zm0,4.56h1.11c0.64,0,1.29.05,1.93,0s1.3,0,2-.05h0.86a0.19,0.19,0,0,1,.23.22c0,0.81,0,1.62,0,2.51a3.53,3.53,0,0,0-6.09-.26V30.81Zm2.82-10.14a1.35,1.35,0,0,1,0-.2l0.09,0a1.37,1.37,0,0,1,.1.35q0,4.68,0,9.37a2.42,2.42,0,0,1-.07.4l-0.08,0a1,1,0,0,1-.07-0.25Q62.65,25.51,62.65,20.67Zm1.41,2.5a0.39,0.39,0,0,1,.32.46c0,0.62,0,1.25,0,1.91h-1c0-.69,0-1.37,0-2.05C63.38,23.2,63.75,23.11,64.06,23.17Zm-0.49-.76a1,1,0,0,1,.8-0.75,6.6,6.6,0,0,1,0,.87,0.57,0.57,0,0,1-.25.38,0.43,0.43,0,0,1-.4-0.07A0.54,0.54,0,0,1,63.57,22.41Zm2,6.4a0.21,0.21,0,0,1,.26.25c0,0.4,0,.79,0,1.19a0.29,0.29,0,0,1-.16.21c-0.78,0-1.57,0-2.37,0V28.81h2.29Zm0.26-.4H64.76c0-.22,0-0.44,0-0.65,0-.47,0-0.94,0-1.41a0.47,0.47,0,0,1,.53-0.53,0.5,0.5,0,0,1,.58.52C65.87,27,65.87,27.7,65.87,28.41Zm0-3.07a0.28,0.28,0,0,1-.19.19,3.56,3.56,0,0,1-.72,0,0.28,0.28,0,0,1-.18-0.2c0-.29,0-0.59,0-0.89s0-.54,0-0.8a0.44,0.44,0,0,1,.51-0.49,0.51,0.51,0,0,1,.59.47C65.88,24.2,65.88,24.77,65.86,25.35Zm-1-3.68a1,1,0,0,1,.83.83,0.41,0.41,0,0,1-.37.45,0.42,0.42,0,0,1-.46-0.43C64.81,22.23,64.82,22,64.82,21.66Zm1,0.22a1.68,1.68,0,0,0-2.49,0V20.48h2.49v1.4Zm-2.2,4a0.6,0.6,0,0,1,.67.09,0.3,0.3,0,0,1,.07.19c0,0.75,0,1.49,0,2.27H63.32c0-.33,0-0.64,0-1a9.76,9.76,0,0,1,0-1.13A0.65,0.65,0,0,1,63.63,25.85Zm-3.8,9.45A4.35,4.35,0,0,1,60,34a2.82,2.82,0,0,1,2.52-2,3,3,0,0,1,2.91,1.35,2.77,2.77,0,0,1,.49,1.53c0,1.71,0,3.42,0,5.13,0,0.05,0,.11,0,0.17H65.54v-0.3c0-1.57,0-3.14,0-4.71a2.85,2.85,0,0,0-.64-1.94,2.73,2.73,0,0,0-1.7-.92,2.63,2.63,0,0,0-1.33.15A2.67,2.67,0,0,0,60.15,35c0,1.65,0,3.31,0,5,0,0.14,0,.26-0.19.26s-0.2-.12-0.19-0.26C59.79,38.42,59.8,36.86,59.83,35.31Zm1,6.51,0,0.28H59.12V41.82H60.8Zm-7.35.29,0-.28h1.46l0,0.28h-1.5ZM54,42.73c-0.46,0-.9,0-1.33,0a0.19,0.19,0,0,1,0-.37c0.38,0,.76,0,1.14,0S54,42.55,54,42.73Zm-0.18-7.57a0.6,0.6,0,0,1,.51.67q0,2.1,0,4.21a0.36,0.36,0,0,1,0,.21,1.43,1.43,0,0,0-.23,1.09H53a0.4,0.4,0,0,1,0-.08c-0.17-1.8-.09-3.6-0.12-5.4A0.7,0.7,0,0,1,53.83,35.16ZM53.13,34a2.3,2.3,0,0,1,1.12-1.2l0.11,0c0,0.49,0,1-.08,1.48a0.57,0.57,0,0,1-.79.48A0.61,0.61,0,0,1,53.13,34Zm2.63,6.23c-0.39,0-.77,0-1.2,0,0-.52,0-1,0-1.5q0-1.55.06-3.09a0.63,0.63,0,0,1,.84-0.5,0.64,0.64,0,0,1,.6.75c0,1.35,0,2.7,0,4A0.24,0.24,0,0,1,55.76,40.24ZM55.89,41H55.18V40.75h0.68ZM56,34.45a0.66,0.66,0,0,1-.76.41,0.64,0.64,0,0,1-.6-0.62c0-.05,0-0.11,0-0.17l-0.06,0a7,7,0,0,1,.35-1.13c0.21-.42.59-0.4,0.84,0A2,2,0,0,1,56,34.45Zm-1,6.3V41H54.4V40.75h0.53Zm1,0.5,0,0.33H54.4l0-.33h1.5Zm-1.65,1.1c0.5,0,1,0,1.51,0a0.92,0.92,0,0,1,.21.36H54.24V42.35Zm0.93-.24,0-.28h1.73l0,0.28H55.16Zm1.93-7.31a0.58,0.58,0,0,1-.76-0.44c0-.51,0-1,0-1.59a2.41,2.41,0,0,1,1.18,1.34A0.57,0.57,0,0,1,57.09,34.8Zm0.62,1c0,1.38,0,2.77,0,4.15a0.6,0.6,0,0,1-.11.35,1.79,1.79,0,0,0-.18,1H56.49a0.13,0.13,0,0,1,0,0c-0.17-1.86-.12-3.73-0.12-5.6a0.52,0.52,0,0,1,.52-0.54A0.64,0.64,0,0,1,57.72,35.82Zm-1.6,6.54h1.8v0.36h-1.8V42.36Zm1.06-.25V41.83h1.68l0,0.28H57.18Zm1.31,0.24h1.38v0.37H58.19C58.14,42.35,58.14,42.34,58.49,42.34ZM60,41.58H57.85V41.22H60v0.36ZM58.74,41H57.85l0-.29h0.73C58.78,40.67,58.81,40.79,58.74,41ZM58.48,30.34a0.27,0.27,0,0,1-.17.13H56V28.81h0.32c0.72,0,1.44,0,2.16,0,0.24,0,.28.08,0.3,0.3A2.12,2.12,0,0,1,58.48,30.34ZM56,26.42a0.61,0.61,0,0,1,.92-0.54,0.46,0.46,0,0,1,.24.32c0,0.73,0,1.46,0,2.22H56V26.73A2.51,2.51,0,0,0,56,26.42Zm1.17-3.93a0.39,0.39,0,0,1-.31.42,0.57,0.57,0,0,1-.47-0.1,0.71,0.71,0,0,1,0-.55,1.16,1.16,0,0,1,.82-0.61C57.16,22,57.16,22.23,57.16,22.49Zm-0.74.68a0.66,0.66,0,0,1,.66.16,0.28,0.28,0,0,1,.07.17c0,0.67,0,1.34,0,2H56c0-.64,0-1.26,0-1.88A0.5,0.5,0,0,1,56.43,23.17Zm1.12,5.24V28c0-.55,0-1.11,0-1.66a0.53,0.53,0,0,1,.5-0.56,0.55,0.55,0,0,1,.71.49c0,0.7,0,1.4,0,2.11H57.55Zm1.21-3a0.24,0.24,0,0,1-.16.16c-0.34,0-.68,0-1,0,0-.62,0-1.19,0-1.76a0.54,0.54,0,0,1,.53-0.62,0.57,0.57,0,0,1,.69.52C58.79,24.25,58.78,24.81,58.76,25.38Zm-1.15-3.7a1.22,1.22,0,0,1,.87.62,0.38,0.38,0,0,1-.06.49,0.62,0.62,0,0,1-.46.13,0.49,0.49,0,0,1-.33-0.31A6,6,0,0,1,57.61,21.68ZM56,21.91c0-.44,0-0.83,0-1.23a0.27,0.27,0,0,1,.2-0.18q1.18,0,2.35,0a0.28,0.28,0,0,1,.2.18c0,0.4,0,.8,0,1.22C57.6,21.12,57.13,21.12,56,21.91Zm-1.07,6.92v1.63H52.25V28.83h2.68Zm-1.15-2.47a0.51,0.51,0,0,1,.6-0.54,0.46,0.46,0,0,1,.56.53c0,0.68,0,1.36,0,2.07H53.81a1.28,1.28,0,0,1,0-.18C53.78,27.61,53.78,27,53.78,26.36Zm0-.84c0-.64,0-1.27,0-1.9a0.51,0.51,0,0,1,.61-0.47,0.49,0.49,0,0,1,.55.49c0,0.62,0,1.23,0,1.87H53.78Zm0.07-3.83a1,1,0,0,1,.87.84,0.36,0.36,0,0,1-.32.4,0.44,0.44,0,0,1-.55-0.29A8,8,0,0,1,53.85,21.7Zm1.08,0.19a1.85,1.85,0,0,0-2.68,0v-1.4h2.68v1.38Zm-1.52-.22c0,0.36,0,.69-0.08,1a0.43,0.43,0,0,1-.57.26,0.44,0.44,0,0,1-.25-0.54A1.12,1.12,0,0,1,53.41,21.67Zm-0.51,1.5a0.46,0.46,0,0,1,.49.52c0,0.59,0,1.18,0,1.77a0.34,0.34,0,0,1,0,.07H52.23c0-.64,0-1.26,0-1.89A0.56,0.56,0,0,1,52.91,23.16Zm-0.07,2.66a0.51,0.51,0,0,1,.56.54c0,0.68,0,1.36,0,2.06H52.25c0-.07,0-0.14,0-0.21,0-.62,0-1.24,0-1.85A0.52,0.52,0,0,1,52.84,25.82Zm0.6,6.72a2.85,2.85,0,0,1,2-.6,3,3,0,0,1,2.85,2.47,2.45,2.45,0,0,1,.06.51c0,1.39,0,2.79,0,4.18V40.2c-0.32.09-.39,0-0.39-0.24,0-1.63,0-3.25,0-4.88a2.74,2.74,0,0,0-2.14-2.75,2.72,2.72,0,0,0-3.25,2.73q0,2.45,0,4.9v0.32H52.23V40q0-2.56,0-5.13A2.83,2.83,0,0,1,53.44,32.53Zm-0.22,9.29V42.1H51.53V41.82h1.69Zm-14.91.29,0-.28h1.51l0,0.28H38.31Zm0.49,0.24v0.37H37.4c-0.06-.36-0.05-0.37.29-0.37H38.8Zm-0.35-7.21a0.65,0.65,0,0,1,.75.72q0,2.08,0,4.16a0.49,0.49,0,0,1-.08.27,1,1,0,0,0-.19.78,0.21,0.21,0,0,1-.26.28c-0.27,0-.54,0-0.82,0,0-.47-0.08-0.9-0.08-1.34,0-1.39,0-2.77,0-4.16A0.62,0.62,0,0,1,38.45,35.14ZM38,34a2.28,2.28,0,0,1,1.22-1.2c0,0.55,0,1.05-.09,1.54a0.57,0.57,0,0,1-.79.48A0.62,0.62,0,0,1,38,34Zm2.74,6.26H39.48c0-1.57,0-3.09,0-4.61a0.64,0.64,0,0,1,.83-0.49,0.66,0.66,0,0,1,.61.75c0,1.37,0,2.73,0,4.1C40.92,40.11,40.92,40.24,40.74,40.24ZM40.1,41v-0.3h0.63C40.82,41.08,40.7,41.1,40.1,41Zm0.75-6.65a0.59,0.59,0,0,1-.72.46,0.64,0.64,0,0,1-.65-0.63s0-.09,0-0.21a2,2,0,0,1,.39-1.24,0.44,0.44,0,0,1,.7.07,2.25,2.25,0,0,1,.26.7A3.11,3.11,0,0,1,40.85,34.4ZM39.9,40.76c0,0.34,0,.36-0.64.29V40.76H39.9Zm0.85,0.55,0,0.28H39.26V41.31h1.5Zm-1.37,1h1.31v0.37H39C39,42.34,39,42.34,39.38,42.34Zm0.71-.23V41.83h1.68l0,0.28H40.09Zm1.92-7a0.61,0.61,0,0,1,.64.74c0,1.39,0,2.79,0,4.18a1.5,1.5,0,0,1-.1.38l-0.26.89h-0.8a0.18,0.18,0,0,1-.22-0.21c0-.56,0-1.12-0.05-1.68,0-1.21,0-2.42,0-3.63A0.62,0.62,0,0,1,42,35.15ZM41.19,32.8a2.36,2.36,0,0,1,1.09,1,0.58,0.58,0,0,1-.14.86,0.64,0.64,0,0,1-.82-0.09,0.53,0.53,0,0,1-.12-0.29C41.19,33.83,41.19,33.33,41.19,32.8Zm0.06,9.54h1.54v0.37H40.94C40.9,42.34,40.9,42.34,41.25,42.34ZM42,42.11V41.83h1.85l0,0.28H42Zm1,0.24h1.69v0.36H43V42.35Zm1.06-.25V41.82h1.57l0,0.29h-1.6Zm2-7a0.59,0.59,0,0,1,.67.56q0,2.2,0,4.41a0.29,0.29,0,0,1,0,.16,1.23,1.23,0,0,0-.24,1.07h-1a0.14,0.14,0,0,1,0,0c-0.18-1.86-.11-3.73-0.11-5.59C45.36,35.32,45.59,35.15,46.07,35.14Zm-0.44-1.25a2.64,2.64,0,0,1,1.11-1.1c0,0.48,0,.91,0,1.34a0.6,0.6,0,0,1-.34.65,0.68,0.68,0,0,1-.72-0.14A0.6,0.6,0,0,1,45.62,33.89ZM45,42.36h1.42v0.36H45V42.36Zm0.95-.25V41.83H47.5l0,0.28H45.92Zm2.53-7.77a0.61,0.61,0,0,1-.74.51,0.57,0.57,0,0,1-.63-0.62,7.26,7.26,0,0,1,.16-1.12,0.53,0.53,0,0,1,.57-0.47,0.67,0.67,0,0,1,.53.54,4.09,4.09,0,0,1,.11.5,2.14,2.14,0,0,1,0,.33h0A1.5,1.5,0,0,1,48.45,34.34Zm-1.1.86a0.84,0.84,0,0,1,1,.17,0.65,0.65,0,0,1,.12.32c0,1.48,0,3,0,4.43a0.71,0.71,0,0,1,0,.1H47V39.8c0-1.32,0-2.64,0-4A0.61,0.61,0,0,1,47.35,35.2ZM47.75,41v-0.3h0.53V41H47.75Zm0.53,0.24v0.3H46.89c-0.06-.14-0.09-0.29.11-0.29C47.43,41.28,47.85,41.29,48.28,41.29Zm-0.78-.55V41c-0.64.08-.71,0-0.63-0.29H47.5ZM47,42.34h1.31v0.37H46.64C46.62,42.34,46.62,42.34,47,42.34Zm0.77-.24,0-.28h1.58l0,0.28H47.74Zm2.17-.76c-0.31,0-.58,0-0.85,0a0.28,0.28,0,0,1-.2-0.18c-0.05-.75-0.1-1.5-0.12-2.25,0-1,0-2,0-3A0.69,0.69,0,0,1,49,35.25a0.89,0.89,0,0,1,.93,0,0.58,0.58,0,0,1,.22.43c0,1.48,0,3,0,4.43a0.27,0.27,0,0,1,0,.16A1.36,1.36,0,0,0,49.9,41.34Zm0-6.85a0.54,0.54,0,0,1-.71.29,0.63,0.63,0,0,1-.39-0.42c-0.07-.51-0.07-1-0.1-1.54l0.09,0a1.72,1.72,0,0,1,.27.19,11,11,0,0,1,.76.82A0.66,0.66,0,0,1,49.91,34.49Zm-1.08,7.85c0.42,0,.83,0,1.25,0s0.38,0.09.3,0.38H48.55C48.48,42.36,48.49,42.34,48.83,42.34Zm0.74-.23V41.83h1.69v0.28h-1.7Zm1.2,0.24q0.69,0,1.38,0a0.53,0.53,0,0,1,.2.18,0.54,0.54,0,0,1-.2.19c-0.24,0-.48,0-0.72,0a5.9,5.9,0,0,1-.66,0,0.54,0.54,0,0,1-.2-0.18A0.53,0.53,0,0,1,50.76,42.35Zm1.66-.77H50.31l0-.28h2.14v0.28Zm-1.15-.53h-1c-0.06-.23,0-0.33.25-0.32s0.46,0,.72,0v0.32ZM44.7,30.46V28.82h2.52a0.25,0.25,0,0,1,.17.18c0,0.48,0,1,0,1.46H44.7Zm1.54-2c0-.75,0-1.48,0-2.22,0-.25.26-0.38,0.63-0.38a0.48,0.48,0,0,1,.52.47c0,0.7,0,1.4,0,2.13H46.24Zm0-2.88c0-.68,0-1.35,0-2a0.62,0.62,0,0,1,1.15.09c0,0.63,0,1.27,0,1.93H46.24Zm0.05-3c0-.28,0-0.57,0-0.88a1.31,1.31,0,0,1,.82.62,0.45,0.45,0,0,1,0,.5,0.42,0.42,0,0,1-.52.14A0.35,0.35,0,0,1,46.29,22.54Zm1.09-.64a1.89,1.89,0,0,0-2.68,0V20.51h2.68V21.9Zm-1.6.65a0.53,0.53,0,0,1-.25.37A0.4,0.4,0,0,1,45,22.77a0.59,0.59,0,0,1,0-.47,1.06,1.06,0,0,1,.81-0.61A6.38,6.38,0,0,1,45.78,22.55Zm-0.4.61a0.48,0.48,0,0,1,.46.49c0,0.59,0,1.18,0,1.77,0,0,0,.05,0,0.11H44.69c0-.66,0-1.31,0-2A0.56,0.56,0,0,1,45.39,23.16Zm-0.14,2.66c0.41,0,.6.14,0.6,0.46,0,0.7,0,1.4,0,2.13H44.69V28c0-.56,0-1.12,0-1.69A0.46,0.46,0,0,1,45.25,25.82Zm-0.55,8.5a3.14,3.14,0,0,1,1-1.62,3,3,0,0,1,2.2-.78,3,3,0,0,1,2.92,2.64,7,7,0,0,1,.06.93c0,1.49,0,3,0,4.46v0.32H50.45V40c0-1.65,0-3.31,0-5a2.62,2.62,0,0,0-1.5-2.5,2.69,2.69,0,0,0-3,.42A2.84,2.84,0,0,0,45,35.18c0,1.6,0,3.2,0,4.79v0.31H44.63V40c0-1.59,0-3.18,0-4.77A3.66,3.66,0,0,1,44.7,34.32Zm0.19,7.26H42.78c0-.14-0.08-0.29.13-0.29h2Zm-1.1-.52c-0.29,0-.59,0-0.88,0a0.25,0.25,0,0,1-.15-0.17,0.21,0.21,0,0,1,.14-0.15c0.29,0,.59,0,0.89,0v0.33Zm-5.71.75V42.1H36.44V41.82h1.63Zm-0.89.71a0.28,0.28,0,0,1-.18.19c-0.51,0-1,0-1.57,0V42.34c0.54,0,1.06,0,1.58,0A0.25,0.25,0,0,1,37.19,42.53Zm0.1-.95H35.16l0-.35c0.68,0,1.35,0,2,0C37.39,41.25,37.3,41.44,37.29,41.58Zm-1.1.24,0,0.29H34.44V41.82h1.74Zm-1,.52v0.37H33.4c0-.37,0-0.37.31-0.37h1.48ZM35,40.1a2.28,2.28,0,0,1-.12.41c-0.05.26-.1,0.53-0.15,0.83h-1a0.32,0.32,0,0,1,0-.08c-0.16-1.79-.11-3.58-0.12-5.38a0.68,0.68,0,0,1,.94-0.72,0.47,0.47,0,0,1,.45.59C35,37.2,35,38.65,35,40.1Zm-0.26-5.51a0.72,0.72,0,0,1-.75.2,0.49,0.49,0,0,1-.36-0.49c0-.49,0-1,0-1.51a2.51,2.51,0,0,1,1.12,1.08A0.63,0.63,0,0,1,34.72,34.59Zm-0.54,7.23,0,0.28H32.56V41.82h1.62Zm-1,.54v0.36H31.67V42.36h1.47Zm-1.26-2.14V40c0-1.38,0-2.75,0-4.13a0.72,0.72,0,0,1,1.44,0q0,2,0,4.07v0.29H31.88Zm1.26,0.53V41H32.56V40.75h0.58Zm0.14-6.37a0.64,0.64,0,0,1-.79.47c-0.4-.1-0.57-0.15-0.54-0.84l-0.07,0c0.1-.35.18-0.71,0.31-1.05a0.48,0.48,0,0,1,.9,0A1.93,1.93,0,0,1,33.27,34.38Zm-1,6.37V41H31.67V40.75H32.3Zm0.85,0.49v0.33H31.68l0-.33h1.5Zm-0.86.57,0,0.28H31V41.82H32.3Zm-1.6,0v0.28H29.07V41.83H30.7Zm-0.55.52c0.31,0,.63,0,0.94,0s0.35,0,.33.39c-0.44,0-.87,0-1.29,0a0.52,0.52,0,0,1-.19-0.19A0.55,0.55,0,0,1,30.15,42.35ZM30.69,43c0.05,0.22,0,.33-0.24.33-0.46,0-.92,0-1.39,0V43h1.63ZM30,43.53h1.47v0.3H30v-0.3Zm1-.24V43h1.36c0.05,0.23,0,.33-0.25.32S31.32,43.29,30.95,43.29Zm0.72,0.23h1.47v0.31H31.67V43.52Zm0.89-.23V43c0.5,0,1,0,1.47,0a0.46,0.46,0,0,1,.18.15,0.5,0.5,0,0,1-.19.16C33.53,43.29,33.06,43.29,32.56,43.29Zm0.83,0.24h1.81v0.3H33.39v-0.3Zm1.05-.24V43H36a0.46,0.46,0,0,1,.18.15,0.49,0.49,0,0,1-.19.17C35.5,43.29,35,43.29,34.44,43.29Zm1,0.24h1.75v0.3H35.44v-0.3Zm1-.26V43h1.63v0.3H36.44Zm2.35,0.26v0.3H37.38l0-.3H38.8Zm-0.48-.26V43h1.53v0.3H38.32ZM39,43.52h1.64v0.3H39v-0.3Zm1.05-.24V43h1.53a0.47,0.47,0,0,1,.18.15,0.49,0.49,0,0,1-.19.17C41.12,43.29,40.62,43.29,40.1,43.29Zm0.83,0.24h1.86v0.3H40.93v-0.3Zm1.27-.25A0.58,0.58,0,0,1,42,43.12,0.57,0.57,0,0,1,42.2,43c0.54,0,1.08,0,1.64,0,0.07,0.26,0,.34-0.26.34C43.11,43.28,42.66,43.29,42.2,43.28ZM43,43.53h1.7v0.3H43v-0.3Zm1.05-.25V43h1.58v0.3H44.09ZM45,43.52h1.42v0.3H45v-0.3Zm0.94-.25V43H47.5v0.3H45.92Zm0.72,0.25h1.64v0.3H46.64v-0.3Zm1.11-.26V43h1.58v0.3H47.75Zm0.78,0.26h1.86v0.3H48.53v-0.3Zm1.22-.25a0.46,0.46,0,0,1-.18-0.15A0.5,0.5,0,0,1,49.76,43c0.5,0,1,0,1.51,0v0.33C50.76,43.29,50.25,43.29,49.74,43.28Zm0.84,0.24h1.75v0.3H50.58v-0.3Zm0.93-.25V43h1.69v0.3H51.51Zm1,0.25H54v0.3H52.52v-0.3Zm1.08-.25A0.61,0.61,0,0,1,53.4,43L53.49,43h1.44v0.32C54.49,43.28,54,43.29,53.59,43.27Zm0.65,0.25h1.63v0.3H54.24v-0.3Zm0.93-.25V43h1.75v0.3H55.18Zm0.94,0.25h1.81v0.3H56.12v-0.3Zm1.05-.24V43h1.69c0.06,0.23,0,.33-0.25.32C58.14,43.28,57.67,43.29,57.17,43.29Zm1,0.24h1.7v0.3h-1.7v-0.3Zm0.94-.25V43h1.7v0.3h-1.7Zm1,0.25h1.47v0.3H60.12v-0.3Zm0.94-.25V43h1.47v0.31H61.06Zm0.78,0.25h1.7v0.3h-1.7v-0.3Zm1.07-.25A0.82,0.82,0,0,1,62.69,43h1.78v0.32C64,43.28,63.43,43.29,62.9,43.27Zm0.81,0.25h1.81v0.3H63.72v-0.3Zm1.19-.25a0.51,0.51,0,0,1-.2-0.16A0.53,0.53,0,0,1,64.9,43c0.22,0,.44,0,0.66,0a5.6,5.6,0,0,1,.61,0,0.54,0.54,0,0,1,.2.16,0.51,0.51,0,0,1-.2.16Q65.54,43.3,64.9,43.28Zm0.87,0.24H67.3v0.3H65.77v-0.3Zm0.93-.25a0.44,0.44,0,0,1-.16-0.17A0.53,0.53,0,0,1,66.75,43c0.53,0,1.05,0,1.6,0,0,0.06,0,.1,0,0.13s0,0.11,0,.2H66.7Zm0.79,0.25h1.74v0.3H67.49v-0.3Zm1.3-.24c-0.24,0-.2-0.15-0.19-0.33,0.44,0,.86,0,1.29,0a0.51,0.51,0,0,1,.2.16,0.51,0.51,0,0,1-.2.16C69.52,43.29,69.15,43.28,68.79,43.29Zm0.08-5.49c0,1.12,0,2.25-.05,3.37,0,0.05,0,.11,0,0.16-0.19,0-.27,0-0.26-0.2,0-1.2,0-2.4,0-3.6a0.32,0.32,0,0,1,.1-0.23c0.42-.3.86-0.59,1.32-0.9v3.84H69.7V37.15a0.22,0.22,0,0,0-.28.27c0,0.84,0,1.68,0,2.52v0.29H69.14V37.54C68.88,37.47,68.86,37.62,68.86,37.8ZM70,19.33a0.32,0.32,0,0,1-.18.33c-0.4.24-.79,0.5-1.24,0.79,0-.13,0-0.21,0-0.3,0-1.17,0-2.35,0-3.52a0.37,0.37,0,0,1,.21-0.37c0.41-.24.8-0.52,1.24-0.8v0.44C70,17,70,18.18,70,19.33Zm-1.21,1.45L70,20v0.31q0,4.79,0,9.59a0.39,0.39,0,0,1-.2.38L68.56,31a2.76,2.76,0,0,1,0-.28q0-4.79,0-9.59A0.41,0.41,0,0,1,68.77,20.78ZM69.69,31.5a0.44,0.44,0,0,0-.11-0.28c-0.2,0-.16.17-0.16,0.3,0,1.51,0,3,0,4.54a0.3,0.3,0,0,1-.29.37V31.6c-0.22,0-.28.07-0.28,0.27,0,1.52,0,3,0,4.57a0.36,0.36,0,0,1-.32.41c0-.09,0-0.17,0-0.25,0-1.61,0-3.21,0-4.82a0.49,0.49,0,0,1,.14-0.35c0.4-.3.83-0.56,1.28-0.86,0,0.12,0,.2,0,0.28,0,1.63,0,3.25,0,4.88a0.27,0.27,0,0,1-.28.33V33.89C69.7,33.09,69.7,32.3,69.69,31.5Zm0.36,9.25c0,0.29,0,.31-0.23.31H69.21V40.75h0.84Zm1.12,0.55v0.28h-2l0-.28h2Zm-0.25-4.48c0,1.12,0,2.25,0,3.4H70.49a25.51,25.51,0,0,1,.11-4.64A3.24,3.24,0,0,1,70.92,36.82Zm0-2.4v0.79C70.68,34.67,70.68,34.53,71,34.42Zm0.22,6.33v0.3H70.32v-0.3h0.86Zm-0.86,1.07h2l0,0.29h-2V41.82ZM71.58,34L71.3,35l-0.07,0C71.36,34.69,71,34.25,71.58,34Zm0.49,1.75c0,1.61,0,3.21,0,4.82a0.78,0.78,0,0,1-.45.53V40.26l-0.27,0V39.92c0-1,0-2.07,0-3.1a4.93,4.93,0,0,1,.48-2.05A4.4,4.4,0,0,1,72.07,35.75Zm-0.22-2,0.32-.15v0.83H72.12Zm1.64,6.45a0.6,0.6,0,0,0-.58.58c0,0.17,0,.33,0,0.49-0.36.07-.39,0.06-0.39-0.28,0-1.2,0-2.4,0-3.6a2.42,2.42,0,0,1,.29-1.2l0.8-1.52,0.7,1a0.29,0.29,0,0,1,0,.15c0,1.44,0,2.88,0,4.36H73.49ZM74,41.07a3,3,0,0,0-.47,0c-0.24,0-.31-0.09-0.25-0.32h1C74.33,41,74.29,41.09,74,41.07Zm-1.22-5.75-0.22.37H72.52a8.53,8.53,0,0,1,.12-2.14A1.13,1.13,0,0,1,73,33.09a0.2,0.2,0,0,1,.32.16A3.64,3.64,0,0,1,72.81,35.32Zm0.47,7v0.35H71.54V42.36h1.75Zm-2,0v0.39c-0.57,0-1.13,0-1.68,0a0.28,0.28,0,0,1-.18-0.19,0.25,0.25,0,0,1,.17-0.18C70.16,42.34,70.72,42.34,71.29,42.34Zm-1.86,1.18h1.86v0.3H69.43v-0.3Zm0.89-.24V43h2c0.07,0.24,0,.33-0.25.32C71.47,43.28,70.91,43.29,70.32,43.29Zm1.22,0.24h1.75v0.31H71.54V43.52Zm1-.24V43h1.72c0.07,0.29,0,.32-0.21.32H72.54Zm1,0.24h1.64v0.3H73.53v-0.3Zm1.64-.81H73.53V42.36h1.64v0.35Zm-2.64-.61V41.82h1.74l0,0.29H72.54Zm0.78-.53,0-.28h2.14v0.28H73.32ZM73.58,33a1,1,0,0,1,.75-0.79c0.05,0.87,0,1.71,0,2.63A2,2,0,0,1,73.58,33Zm0.95-10.46a0.7,0.7,0,0,1-.45.76,0.41,0.41,0,0,0-.29.49,3.72,3.72,0,0,1,0,.42,0.61,0.61,0,0,1-.55.71,2.78,2.78,0,0,1,0-.41A0.31,0.31,0,0,0,73,24.14a0.57,0.57,0,0,0-.36.08c-0.25.13-.47,0.3-0.72,0.43a0.32,0.32,0,0,0-.19.35c0,0.17,0,.35,0,0.53a0.6,0.6,0,0,1-.54.69c0-.76-0.15-0.87-0.72-0.66,0-.06,0-0.11,0-0.16,0-2.29,0-4.58,0-6.87a0.37,0.37,0,0,1,.19-0.35L74.1,16l0.42-.26V16C74.52,18.2,74.51,20.38,74.53,22.56Zm-0.06-7.43a2.54,2.54,0,0,1-.91.65l-3,2H70.47V15.61A0.51,0.51,0,0,1,70.84,15v1.06c0.53-.35,1-0.65,1.44-1a0.37,0.37,0,0,0,.12-0.25,3.33,3.33,0,0,0,0-.64c0-.28.14-0.36,0.39-0.43v1c0.45-.29.85-0.54,1.24-0.81a0.46,0.46,0,0,0,.14-0.3,2.64,2.64,0,0,0,0-.55,0.38,0.38,0,0,1,.34-0.47c0,0.45,0,.88,0,1.32A2.86,2.86,0,0,1,74.47,15.13Zm-4-.36V14.42H71Zm0.88,0.47V14.42h0.51C72,14.89,72,14.9,71.37,15.24ZM74,11.42h0.46c0.09,0.62,0,.79-0.46.94V11.42Zm-2.18,1.15V11.43h0.5c0,0.29,0,.58,0,0.87a0.22,0.22,0,0,0,.27.27c0.4,0,.79,0,1.23,0,0,0.33,0,.65,0,1a0.33,0.33,0,0,1-.15.16L73.19,14V13A3.62,3.62,0,0,0,72,13.9a0.18,0.18,0,0,1-.14.05H70.49c0-.21,0-0.36.22-0.4a0.23,0.23,0,0,0,.14-0.17,0.25,0.25,0,0,0-.1-0.2,0.63,0.63,0,0,1-.49-0.62h1.59ZM70,11.5a0.78,0.78,0,0,1,.3-0.13v0.72A0.65,0.65,0,0,1,70,11.5ZM69.45,4.82H69.5l0.2,2.37-0.46,0ZM69.31,8c0-.13,0-0.3.2-0.27V8.85A1,1,0,0,1,69.31,8Zm-0.6-2a0.19,0.19,0,0,1,.17,0,0.43,0.43,0,0,1,.08.24,2.34,2.34,0,0,1-.07.38c-0.19.06-.33,0-0.32-0.2A1.15,1.15,0,0,1,68.71,5.94ZM68.63,8.25L70,13.48l-1.39.92c0-.16,0-0.26,0-0.35a0.2,0.2,0,0,1,.2-0.26,0.27,0.27,0,0,0,.18-0.2,0.42,0.42,0,0,0-.15-0.23,0.83,0.83,0,0,1-.21-0.17,0.77,0.77,0,0,1,.14-0.45c0.23-.22.24-0.3,0-0.44a0.45,0.45,0,0,1,0-.6A1,1,0,0,0,69,11.49a0.57,0.57,0,0,1-.4-0.73,0.25,0.25,0,0,1,.09-0.18c0.24-.11.1-0.3,0-0.38a0.77,0.77,0,0,1-.08-0.76,1,1,0,0,0,.05-0.26c0-.31-0.1-0.62-0.15-0.93Zm0.5,6.31V15l0.11,0a0.72,0.72,0,0,0,.17-0.32,0.61,0.61,0,0,1,.51-0.7c0,0.3,0,.57,0,0.85a0.15,0.15,0,0,1-.07.1l-1.26.84A0.94,0.94,0,0,1,69.12,14.55ZM68.49,41.83h1.57l0,0.28H68.47Zm0.42,0.52c0.35,0,.35,0,0.31.37H67.5c0-.37,0-0.37.31-0.37h1.11Zm-0.69-.24h-1.7l0-.28h1.68V42.1ZM68.12,8.22c0,0.43.06,0.77,0.07,1.12a1.92,1.92,0,0,1-.08.36,0.44,0.44,0,0,0,0,.24,0.8,0.8,0,0,1-.07.91,0.22,0.22,0,0,0,0,.21,0.51,0.51,0,0,1,.1.62,0.75,0.75,0,0,0-.2.3,0.4,0.4,0,0,0,.26.24,1.44,1.44,0,0,1,0,.36,1,1,0,0,1-.17.28,0.55,0.55,0,0,0-.14.19,0.26,0.26,0,0,0,.14.19c0.23,0.09.17,0.27,0.18,0.44a0.21,0.21,0,0,1-.2.24,0.21,0.21,0,0,0-.12.14,0.65,0.65,0,0,0,.15.23,1.24,1.24,0,0,0,.2.14l0,0.07H66.49Zm-5.53,3.2v1.14H64V11.44h0.53v1.11H66V11.43h0.75a0.48,0.48,0,0,1-.35.65,0.22,0.22,0,0,0,0,.36,0.41,0.41,0,0,1-.09.63c-0.23.13-.34,0.25-0.07,0.46a0.3,0.3,0,0,1,0,.25,0.24,0.24,0,0,1-.18.11H61.9V11.42h0.69ZM61.83,7.69C62.05,7.7,62,7.88,62,8c0,0.9,0,1.79,0,2.69,0,0.08,0,.16,0,0.25H61.67c0-.08,0-0.16,0-0.24,0-.91,0-1.81,0-2.72C61.66,7.87,61.6,7.69,61.83,7.69Zm0-2.91h0.06L62,7.18l-0.45,0Zm-1.72,7.79c0.65,0,.65,0,0.65-0.66v-0.5a5.8,5.8,0,0,1,.64,0,0.26,0.26,0,0,1,.18.17c0,0.76,0,1.53,0,2.3H59.89c0-.18-0.19-0.47.25-0.46a0.26,0.26,0,0,0,.11-0.21A0.33,0.33,0,0,0,60,13c-0.2,0-.29-0.06-0.27-0.27S59.94,12.57,60.07,12.57Zm0,2a0.24,0.24,0,0,0,.31-0.15,0.2,0.2,0,0,1,.15-0.07h5.07l0,0.07,0.37,0.36V17l-0.29,0a0.49,0.49,0,0,0-.52.49c0,0.21,0,.42,0,0.66H64.65c0-.3,0-0.6,0-0.9A0.2,0.2,0,0,0,64.41,17H63.83a0.55,0.55,0,0,0-.63.64c0,0.16,0,.33,0,0.51H62.76c0-.29,0-0.59,0-0.89A0.21,0.21,0,0,0,62.51,17c-0.19,0-.39,0-0.58,0a0.57,0.57,0,0,0-.61.6c0,0.17,0,.35,0,0.54H60.88c0-.3,0-0.61,0-0.91A0.2,0.2,0,0,0,60.64,17H59.8a0.91,0.91,0,0,1,0-.16c0-.67,0-1.35,0-2C59.76,14.63,59.83,14.54,60,14.56ZM60,40.69V41H59V40.69h1ZM59.1,23.58V21.26H59.4v8.2c-0.31.07-.29-0.11-0.29-0.28Q59.11,26.38,59.1,23.58Zm0-7.65c0-.5,0-1,0-1.51a0.74,0.74,0,0,1,.11-0.26l0.1,0c0,0.2,0,.39.06,0.59s0,0.13,0,.19q0,2.53.06,5.06c0,0.18.05,0.36,0,.54a0.54,0.54,0,0,1-.15.21,0.55,0.55,0,0,1-.17-0.21c0-.62,0-1.24,0-1.86C59.1,17.77,59.11,16.85,59.1,15.93Zm0.09-4.31h0.06l0.21,2.11H59Zm0.15,18.25c-0.17.65-.18,0.66-0.46,0.64C59,29.89,59.1,29.79,59.34,29.86ZM59.15,31v9.22c-0.43.05-.43,0-0.43-0.34q0-4.3,0-8.59V31h0.43ZM55,11.42v1.13H56.4V11.44h0.41v1.11h1.46V11.41h0.32a0.2,0.2,0,0,1,.22.26c0,0.21,0,.46-0.3.49a0.67,0.67,0,0,0,0,.33c0.26,0.11.25,0.28,0.13,0.5-0.15,0-.42,0-0.35.3a0.22,0.22,0,0,0,.1.15c0.34,0,.21.25,0.23,0.44H54.24V11.42H55ZM54.08,11a0.37,0.37,0,0,1,0-.09c0-1,0-2,0-2.94a0.62,0.62,0,0,1,.12-0.23,0.47,0.47,0,0,1,.14.19c0,1,0,2,0,3.07H54.08Zm0.13-6.2h0l0.19,2.39L54,7.18Zm3.69,9.59a0.28,0.28,0,0,1,.32.15,0.35,0.35,0,0,0,.26.07,0.19,0.19,0,0,1,.24.22c0,0.73,0,1.46,0,2.23H58.27a0.52,0.52,0,0,0-.55.57c0,0.19,0,.38,0,0.56H57.24V17c-0.41,0-.77,0-1.13,0a0.41,0.41,0,0,0-.34.46c0,0.22,0,.45,0,0.67H55.28V17a7.29,7.29,0,0,0-1.19,0,0.73,0.73,0,0,0-.3.48,2.64,2.64,0,0,0,0,.64H53.29V17H52.19c0-.82,0-1.61,0-2.4,0.12-.18.55,0.28,0.49-0.26h5.23Zm-5.73-1.77h0.88V11.42h0.76v2.46H52.24c0-.2-0.12-0.45.26-0.44a0.22,0.22,0,0,0,.11-0.18A0.39,0.39,0,0,0,52.48,13C52.06,13.1,52.19,12.81,52.18,12.57Zm0,4.84h0.62v1.12h1.38l0.09-1.1c0.45-.1.48-0.07,0.48,0.36,0,0.27,0,.53,0,0.81h1.44c0-.26,0-0.53,0-0.79s-0.09-.43.28-0.43,0.26,0.26.27,0.44,0,0.5,0,.77h1.44c0-.29,0-0.57,0-0.85s0.08-.39.36-0.35h0.26c0,0.81,0,1.59,0,2.37a0.19,0.19,0,0,1-.22.23h-6.4V17.41Zm0.14,23.33a0.21,0.21,0,0,1,.14.14,0.25,0.25,0,0,1-.15.17c-0.25,0-.5,0-0.77,0V40.74C51.78,40.74,52,40.73,52.29,40.74ZM51.78,20.62a1.17,1.17,0,0,1,0,.13c-0.25.06-.26-0.08-0.26-0.26,0-1.44,0-2.89,0-4.33,0-.58,0-1.16,0-1.73a0.66,0.66,0,0,1,.13-0.25,1.06,1.06,0,0,1,.13.26,2.07,2.07,0,0,1,0,.37Q51.76,17.72,51.78,20.62Zm-0.13.64c0.13,0,.13,0,0.13.25q0,3.86,0,7.73c0,0.13,0,.3-0.22.22,0-1.19,0-2.36,0-3.53,0-1.46,0-2.93,0-4.39C51.51,21.43,51.41,21.25,51.65,21.26Zm0-9.58h0.06l0.21,2H51.42Zm0.15,18.15a0.55,0.55,0,0,1-.45.68C51.41,30,51.52,29.82,51.76,29.84ZM51.19,31H51.6v9.29H51.19V31Zm-0.26-.65a0.28,0.28,0,0,1-.2.13H48.48V28.83h2.67A2.46,2.46,0,0,1,50.94,30.34ZM47.4,11.42v1.13h1.39V11.42h0.44v1.15c0.45,0,.87,0,1.29,0a0.27,0.27,0,0,0,.15-0.2c0-.3,0-0.61,0-0.93h0.5a2.28,2.28,0,0,1,0,.49,0.77,0.77,0,0,1-.2.27,0.53,0.53,0,0,0-.16.17,0.25,0.25,0,0,0,.12.21c0.21,0.06.14,0.22,0.13,0.34a0.66,0.66,0,0,1-.19.12,0.48,0.48,0,0,0-.18.21,0.25,0.25,0,0,0,.1.22c0.31,0,.2.26,0.22,0.45H46.65V11.42H47.4ZM46.57,11l-0.11,0V10.6c0-.88,0-1.77,0-2.65a0.74,0.74,0,0,1,.1-0.25,0.7,0.7,0,0,1,.11.24q0,1.38,0,2.76A0.85,0.85,0,0,1,46.57,11Zm0-6.07h0.06l0.21,2.28H46.38Zm3.74,9.43a0.28,0.28,0,0,1,.18,0c0.11,0.26.34,0.17,0.52,0.19a0.13,0.13,0,0,1,0,0c0,0.71,0,1.42.07,2.12a0.22,0.22,0,0,1-.27.27c-0.56,0-.67.12-0.68,0.69a3.4,3.4,0,0,1-.06.44H49.68V17a6.45,6.45,0,0,0-1.15,0,0.73,0.73,0,0,0-.34.48,2.25,2.25,0,0,0,0,.63H47.7V17c-0.4,0-.77,0-1.13,0a0.4,0.4,0,0,0-.32.44c0,0.23,0,.46,0,0.7H46.09c-0.4,0-.4,0-0.4-0.41,0-.21,0-0.42,0-0.64a0.63,0.63,0,0,1,0-.12H44.58c0-.77,0-1.53,0-2.28a0.28,0.28,0,0,1,.2-0.15c0.14,0,.29,0,0.35-0.18a0.28,0.28,0,0,1,.19-0.05h5Zm-5.48-1.83c0.21,0,.42,0,0.62,0,0-.33,0-0.63,0-0.94a0.24,0.24,0,0,1,.16-0.16,5.4,5.4,0,0,1,.59,0v2.47H44.69c0-.2-0.1-0.44.25-0.44a0.33,0.33,0,0,0,.11-0.26A0.27,0.27,0,0,0,44.85,13c-0.2.07-.25,0-0.27-0.18A0.25,0.25,0,0,1,44.85,12.52Zm0.08,4.88c0.15,0,.33,0,0.32.22s0,0.61,0,.93h1.39V17.82c0-.45,0-0.45.5-0.41,0,0.31,0,.62,0,0.93a0.22,0.22,0,0,0,.26.28c0.4,0,.79,0,1.22,0v-1.2h0.51c0,0.32,0,.64,0,1a0.19,0.19,0,0,0,.22.24h1.27V17.39h0.3a0.18,0.18,0,0,1,.21.21c0,0.78,0,1.57,0,2.37H44.58c0-.8,0-1.59,0-2.37C44.57,17.32,44.78,17.4,44.93,17.4Zm0,23.36v0.3H44v-0.3H44.9ZM44,21.56a0.4,0.4,0,0,1,0-.16,0.22,0.22,0,0,1,.13-0.13,0.26,0.26,0,0,1,.14.12,0.22,0.22,0,0,1,0,.11v8C44,29.52,44,29.39,44,29.22c0-1,0-2,0-2.93C44,24.72,44,23.14,44,21.56Zm0-.78c0-.08,0-0.11,0-0.15,0-1.59,0-3.19-.06-4.78,0-.44,0-0.88-0.05-1.32a0.53,0.53,0,0,1,0-.22A0.49,0.49,0,0,1,44,14.18a0.44,0.44,0,0,1,.11.16c0,0.17,0,.34,0,0.51,0,1.41,0,2.82.06,4.23,0,0.55.05,1.1,0.08,1.67Zm0-9.11h0.06l0.2,2H43.8Zm0.26,18.22c-0.24.18,0,.7-0.56,0.63C43.8,29.91,43.93,29.76,44.26,29.89ZM44,31v9.29H43.65V31H44Zm-0.38-1.44a6.53,6.53,0,0,1-.38.87,0.17,0.17,0,0,1-.13.06H40.87V28.82h2.58a0.24,0.24,0,0,1,.17.15A1.46,1.46,0,0,1,43.62,29.55ZM39.8,11.42v1.08h1.39V11.42h0.44V12.5H43V11.43a0.52,0.52,0,0,1,.17,0c0.15,0,.37-0.12.44,0.14a0.63,0.63,0,0,1-.27.64,0.26,0.26,0,0,0-.1.19,0.23,0.23,0,0,0,.11.18,0.19,0.19,0,0,1,.14.3c0,0.08,0,.27-0.23.18a0.34,0.34,0,0,0-.18.2,0.34,0.34,0,0,0,.14.21,0.35,0.35,0,0,0,.17,0c0,0.07,0,.13,0,0.2s0,0.13,0,.22h-4.3V11.42H39.8ZM39,4.81h0l0.2,2.48H38.8Zm0.09,6.12L39,11a0.41,0.41,0,0,1-.14-0.16q0-1.48,0-3A0.46,0.46,0,0,1,39,7.7a0.45,0.45,0,0,1,.12.18C39.09,8.9,39.09,9.92,39.09,10.94Zm-2,3.69a1.81,1.81,0,0,0,.3,0,0.28,0.28,0,0,0,.2-0.1,0.31,0.31,0,0,0,0-.24,2.09,2.09,0,0,0-.25-0.21,0.26,0.26,0,0,1,0-.44c0.21-.14.44-0.26,0.64-0.41A0.47,0.47,0,0,0,38.08,13a3,3,0,0,0,0-.5,0.67,0.67,0,0,1,.61-0.8c0,0.75,0,1.49,0,2.24a0.22,0.22,0,0,1-.08.16l-1.57,1V14.63Zm0,1a0.28,0.28,0,0,1,.13-0.15l1.63-1.07a0.59,0.59,0,0,1,.3-0.08h3.55c0.21,0,.38,0,0.37.27,0.49,0,.49,0,0.49.51V17H43.2a0.55,0.55,0,0,0-.62.63c0,0.16,0,.32,0,0.48l-0.44,0V17a7.34,7.34,0,0,0-1.19,0,0.73,0.73,0,0,0-.3.48,2.53,2.53,0,0,0,0,.62H40.15V17A7.12,7.12,0,0,0,39,17a0.71,0.71,0,0,0-.31.47,2.58,2.58,0,0,0,0,.65H38.16V17H37C37,16.52,37,16.06,37,15.59Zm0.11,25.16a0.53,0.53,0,0,1,.19.2L37.29,41h-1V40.74C36.6,40.74,36.88,40.72,37.15,40.75ZM36.43,21.21c0.23-.12.22,0,0.22,0.18q0,1.32,0,2.63,0,2.61,0,5.21c0,0.12.05,0.31-.21,0.23V21.21Zm0-.67c0-1.58,0-3.17-.06-4.75,0-.42,0-0.84,0-1.26a0.83,0.83,0,0,1,.12-0.29,0.87,0.87,0,0,1,.14.31c0,0.93,0,1.85,0,2.78s0,2.08.05,3.12c0,0.13,0,.28-0.21.2C36.43,20.59,36.43,20.57,36.43,20.54Zm0-9h0l0.21,2.18-0.45,0Zm0.19,18.28c-0.1.59-.2,0.72-0.53,0.66C36.39,29.73,36.34,29.76,36.64,29.84ZM36.05,31h0.35v9.29H36.05V31Zm0,9.76,0,0.25H35.17V40.75h0.91Zm-1.8-17.91a0.44,0.44,0,0,1-.67-0.54,1.2,1.2,0,0,1,.88-0.62A1.55,1.55,0,0,1,34.28,22.84Zm-0.59.37a0.53,0.53,0,0,1,.79.54c0,0.59,0,1.18,0,1.78H33.32c0-.67,0-1.32,0-2A0.58,0.58,0,0,1,33.69,23.21Zm-0.37,3a0.6,0.6,0,0,1,.84-0.34,0.44,0.44,0,0,1,.32.47c0,0.69,0,1.38,0,2.09H33.32C33.32,27.67,33.31,26.93,33.33,26.2Zm0,2.63H36a2.47,2.47,0,0,1-.15,1.24,0.56,0.56,0,0,1-.66.41c-0.62,0-1.23,0-1.88,0V28.83Zm1.54-.43c0-.71,0-1.41,0-2.1a0.45,0.45,0,0,1,.5-0.49,0.54,0.54,0,0,1,.66.45c0,0.71,0,1.42,0,2.13H34.87ZM36,25.53H34.87c0-.68,0-1.35,0-2a0.54,0.54,0,0,1,.62-0.36,0.5,0.5,0,0,1,.54.47C36,24.25,36,24.88,36,25.53Zm-1.11-3.85a1.07,1.07,0,0,1,.85.71,0.47,0.47,0,0,1-.13.43,0.59,0.59,0,0,1-.47.08,0.47,0.47,0,0,1-.24-0.34A7.11,7.11,0,0,1,34.93,21.69ZM36,20.52V22a1.67,1.67,0,0,0-1.34-.63,1.82,1.82,0,0,0-1.35.56V20.52H36Zm-1.76-5.88a0.65,0.65,0,0,1,.6-0.44v1c0.27-.17.52-0.33,0.78-0.48a0.39,0.39,0,0,1,.27-0.06,0.38,0.38,0,0,1,.07.24c0,0.14,0,.28,0,0.41a0.56,0.56,0,0,1-.3.64c-0.47.27-.91,0.57-1.42,0.89C34.26,16.08,34.26,15.36,34.26,14.64ZM36,16.21V17H35.7a0.59,0.59,0,0,0-.71.74v0.41l-0.22,0H34.54c0-.33,0-0.64,0-0.95a0.15,0.15,0,0,1,.06-0.1ZM33.82,8h0l0.21,2.43H33.61Zm0.1,3.07q0,1.44,0,2.88a0.71,0.71,0,0,1-.13.26l-0.07,0v-3.3l0.07,0A0.6,0.6,0,0,1,33.92,11.11ZM33,16.35a0.47,0.47,0,0,0,.29-0.54c0-.09,0-0.19,0-0.28a0.63,0.63,0,0,1,.54-0.79V17H33.67a0.47,0.47,0,0,0-.58.43,0.8,0.8,0,0,1-.53.5V17L32,17A11.77,11.77,0,0,1,33,16.35Zm-1.12-.41v1.12a0.82,0.82,0,0,1-.35-0.19A0.77,0.77,0,0,1,31.91,15.94ZM31.08,17.6v0.55H30.61C30.54,17.78,30.84,17.74,31.08,17.6Zm-1.58,1.45q0-.65,0-1.3c0-.36,0-0.37.37-0.36H30v1.21c0.47,0,.92,0,1.36,0a0.28,0.28,0,0,0,.13-0.21c0-.25,0-0.51,0-0.76s0.11-.23.28-0.23,0.3,0,.28.23,0,0.4-.05.6,0,0.4.33,0.4h1.17V17.41H34c0,0.31,0,.62,0,0.93a0.23,0.23,0,0,0,.29.28c0.31,0,.63,0,0.94,0a0.22,0.22,0,0,0,.27-0.27c0-.31,0-0.62,0-0.95H36V20h-6.5V19.05Zm3.33,11.34v0.19H32.57a0.35,0.35,0,0,1,0-.09q0-4.85,0-9.7a0.5,0.5,0,0,1,0-.21,0.15,0.15,0,0,1,.11-0.08,0.18,0.18,0,0,1,.11.1,0.46,0.46,0,0,1,0,.16Q32.82,25.58,32.82,30.39ZM29.5,21.91V20.52h2.75v1.39A1.88,1.88,0,0,0,29.5,21.91Zm2.4,0.89a0.76,0.76,0,0,1-.52.1,0.43,0.43,0,0,1-.22-0.32,8.1,8.1,0,0,1,0-.89,1,1,0,0,1,.83.68A0.47,0.47,0,0,1,31.91,22.8Zm-1.25-.28a0.32,0.32,0,0,1-.27.37,0.75,0.75,0,0,1-.47-0.07,0.38,0.38,0,0,1-.11-0.51,1.32,1.32,0,0,1,.85-0.66C30.66,22,30.65,22.25,30.66,22.52Zm-0.46.64a0.51,0.51,0,0,1,.51.55c0,0.6,0,1.19,0,1.82H29.55c0-.66,0-1.3,0-1.95A0.52,0.52,0,0,1,30.21,23.16Zm0,2.66a0.51,0.51,0,0,1,.54.55c0,0.67,0,1.35,0,2H29.49c0-.7,0-1.37,0-2A0.56,0.56,0,0,1,30.17,25.82ZM29.5,29a0.24,0.24,0,0,1,.18-0.14h2.56v1.65H29.5C29.5,30,29.49,29.46,29.5,29Zm2.73-.55H31q0-.3,0-0.6c0-.46,0-0.92,0-1.39a0.57,0.57,0,0,1,.66-0.61,0.51,0.51,0,0,1,.55.59q0,1,0,1.94A0.22,0.22,0,0,1,32.23,28.41Zm-1-2.88a0.27,0.27,0,0,1-.19-0.19c0-.57,0-1.14,0-1.71a0.53,0.53,0,0,1,.59-0.47,0.52,0.52,0,0,1,.62.52c0,0.61,0,1.21,0,1.86C31.9,25.54,31.57,25.55,31.24,25.53Zm-1.75,6c0-.7,0-0.7.69-0.7h5.45v2.45a3.42,3.42,0,0,0-3.08-1.77,3.56,3.56,0,0,0-3.06,1.72v-1.7Zm0,8.36c0-1.67,0-3.34,0-5A3,3,0,0,1,32.14,32a3.14,3.14,0,0,1,2.58.79,2.58,2.58,0,0,1,.91,1.89c0,1.84,0,3.68,0,5.51a0.88,0.88,0,0,1,0,.12H35.32V40c0-1.57,0-3.14,0-4.71a3.2,3.2,0,0,0-.4-1.65,2.55,2.55,0,0,0-1.75-1.27,2.66,2.66,0,0,0-1.69.16,2.71,2.71,0,0,0-1.54,1.87,2.25,2.25,0,0,0-.06.54q0,2.49,0,5v0.31H29.49V39.93Zm0.2,0.82c0,0.2,0,.32-0.23.32-0.47,0-.47,0-0.47-0.32H29.7ZM28.92,11.54H29l0.21,2.34H28.71Zm0.14,8.51c0,0.19,0,.38,0,0.6H28.85V14.25c0.21,0,.2.1,0.2,0.24q0,1,0,2Q29.05,18.29,29.05,20.05Zm0,1.12a0.41,0.41,0,0,1,0,.1q0,4,0,7.92a0.58,0.58,0,0,1-.16.23,0.56,0.56,0,0,1-.16-0.22c0-1.55,0-3.1,0-4.65V21.18h0.31Zm-0.4,8.69a1.09,1.09,0,0,1,.47-0.16,3.19,3.19,0,0,1-.26.68,1,1,0,0,1-.44.15A3,3,0,0,1,28.68,29.86ZM28.51,40.22V30.94h0.36v9.28H28.51Zm-0.22,1.36,0-.28h1.45l0,0.28h-1.4Zm0.08,1.14a0.19,0.19,0,0,1,0-.37c0.44,0,.88,0,1.36,0v0.39C29.3,42.73,28.84,42.74,28.38,42.72Zm-0.15,1.1v-0.3h1.52v0.3H28.23Zm2.46,0.56h-1.6c-0.07-.29-0.05-0.32.24-0.32s0.74,0,1.11,0S30.76,44.14,30.69,44.38Zm1.62,0H30.95V44.06c0.41,0,.82,0,1.22,0a0.59,0.59,0,0,1,.2.24Zm1.86,0H32.56V44.06c0.5,0,1,0,1.47,0a0.63,0.63,0,0,1,.23.24Zm2,0H34.44V44.06c0.54,0,1.06,0,1.58,0a0.62,0.62,0,0,1,.23.23Zm1.88,0H36.44v-0.3h1.64v0.3Zm1.78,0H38.33c-0.06-.23,0-0.33.25-0.32,0.41,0,.83,0,1.27,0v0.32Zm1.93,0H40.11c-0.07-.24,0-0.33.25-0.32s0.78,0,1.16,0S41.81,44.07,41.78,44.38Zm2.06,0H42c-0.06-.31,0-0.32.25-0.32h1.32C43.86,44.06,43.86,44.07,43.84,44.39Zm1.83,0H44.1v-0.3h1.58v0.3Zm1.83,0H45.94c0-.29,0-0.31.23-0.31H47.5v0.31Zm1.83,0H47.75v-0.3h1.58v0.3Zm1.93,0H49.61c-0.07-.29-0.05-0.32.24-0.32s0.78,0,1.16,0S51.33,44.14,51.26,44.38Zm2,0h-1.7v-0.3h1.7v0.3Zm1.72,0H53.48c0-.29,0-0.31.23-0.31h1.22v0.31Zm2,0H55.18v-0.3h1.75v0.3Zm1.94,0h-1.7V44.06c0.52,0,1,0,1.53,0a0.62,0.62,0,0,1,.23.23Zm1.95,0H59.12v-0.3h1.69v0.3Zm1.71,0H61.06c-0.06-.25,0-0.32.27-0.32,0.39,0,.79,0,1.2,0v0.31Zm1.93,0H62.79c-0.07-.24,0-0.33.25-0.32,0.49,0,1,0,1.5,0Zm1.89,0H64.72c0-.22,0-0.33.26-0.33s0.74,0,1.11,0S66.42,44.13,66.35,44.38Zm2,0h-1.8c-0.05-.23,0-0.32.25-0.32,0.51,0,1,0,1.55,0v0.31Zm1.71,0H68.6c-0.05-.24,0-0.33.25-0.32s0.64,0,1,0S70.13,44.15,70.06,44.38Zm2.17,0H70.32v-0.3h1.91v0.3Zm2,0H72.51c-0.07-.3-0.05-0.32.24-0.32s0.85,0,1.28,0C74.27,44.05,74.34,44.14,74.28,44.38Zm1.83,0H74.53V44.06c0.48,0,1,0,1.43,0a0.61,0.61,0,0,1,.21.24Zm1.51,0H76.37v-0.3h1.24v0.3Zm0.89-.85v0.3H77.14v-0.3H78.5Zm0-1.18v0.39c-0.4,0-.8,0-1.19,0a0.25,0.25,0,0,1-.17-0.17,0.28,0.28,0,0,1,.18-0.2C77.7,42.33,78.09,42.34,78.5,42.34Zm-0.89-1.59V41c-0.54.09-.6,0.06-0.59-0.28h0.59Zm0.89,0.55v0.28H77l0-.28H78.5Zm-2.14.51h1.25V42.1H76.36V41.82Zm-0.25,0v0.29H74.53V41.82h1.57Zm-0.66-1.07v0.31H74.54V40.75h0.91Zm-0.25-1c-0.12.07-.24,0.16-0.36,0.24-0.07-.66-0.17-0.52.71-1C75.63,39.48,75.61,39.52,75.2,39.76Zm0.46-7.71H75.6l-0.23-.56,0.28-.17v0.72Zm0.57-1L76,32C75.83,31.38,75.87,31.18,76.23,31ZM76,39.14c-0.23-.65.37-0.73,0.71-1A0.83,0.83,0,0,1,76,39.14ZM76.47,38a4,4,0,0,0-.45.28c0-1.75,0-3.45,0-5.14A4.43,4.43,0,0,1,76.37,32l0.15-.46a2,2,0,0,1,.28,1.09c0,1.58,0,3.15,0,4.73A0.58,0.58,0,0,1,76.47,38ZM76.69,8.31c-0.48.31-1,.6-1.53,0.94l1.49-6.61a3,3,0,0,1,.06,1.1,1.37,1.37,0,0,0,0,.76,0.48,0.48,0,0,1-.18.61,0.47,0.47,0,0,0,.09.35,0.44,0.44,0,0,1,.15.51,0.26,0.26,0,0,1-.25.3,0.31,0.31,0,0,0-.12.22,0.22,0.22,0,0,0,.11.17c0.3,0,.27.19,0.27,0.39s0,0.5-.34.49a0.77,0.77,0,0,0-.22.26L76.82,8A0.67,0.67,0,0,1,76.69,8.31Zm0.57,6.93h1.35V25.41H77.26V15.24Zm0-.41V10.14H78.6v4.69H77.25ZM78.6,8.65V9.73H77.25V8.65h0.49a3.5,3.5,0,0,0,0,.51,0.53,0.53,0,0,0,.17.19,0.5,0.5,0,0,0,.15-0.18,4,4,0,0,0,0-.52H78.6ZM77.26,6.79l-0.13.06c0-.23,0-0.45,0-0.68A0.21,0.21,0,0,1,77.25,6c0.19-.11.22-0.26,0.06-0.39a0.56,0.56,0,0,1-.12-0.7,0.29,0.29,0,0,0,0-.43,0.73,0.73,0,0,1-.1-0.43c0-.42,0-0.84,0-1.27l1.35,5.31H77.2V7.33c0.14-.06.41,0,0.35-0.29A0.76,0.76,0,0,0,77.26,6.79Zm0,26.19V31.66h1.37v5.93c-0.2,0-.21,0-0.21-0.21,0-1.7,0-3.4,0-5.1,0-.18.08-0.46-0.2-0.45s-0.12.29-.13,0.44c0,1.68,0,3.36,0,5v0.31H77.81c0-.07,0-0.14,0-0.21,0-1.75,0-3.49,0-5.24a1.78,1.78,0,0,0-.08-0.37H77.57a1.35,1.35,0,0,0-.11.36c0,1.71,0,3.42,0,5.13v0.3c-0.23.12-.22,0-0.22-0.17Q77.24,35.19,77.24,33Zm1.38,5.63H77.26V37.93h1.36v0.68ZM78.4,31.17v-0.3c0-1.51,0-3,0-4.52A1.76,1.76,0,0,0,78.31,26H78.16a1.66,1.66,0,0,0-.09.38c0,1.51,0,3,0,4.52v0.31H77.79V30.87c0-1.51,0-3,0-4.52A1.76,1.76,0,0,0,77.7,26H77.55a1.66,1.66,0,0,0-.09.38c0,1.55,0,3.1,0,4.65,0,0.13,0,.3-0.21.22V25.79h1.37V28q0,1.48,0,3C78.62,31.12,78.63,31.25,78.4,31.17Z" transform="translate(-0.1 -0.08)"/><path class="cls-1" d="M78,19.23a0.62,0.62,0,0,0-.2.24c0,0.67,0,1.35,0,2a0.48,0.48,0,0,0,.18.18,0.5,0.5,0,0,0,.15-0.2c0-.33,0-0.66,0-1s0-.66,0-1A0.73,0.73,0,0,0,78,19.23Z" transform="translate(-0.1 -0.08)"/><path class="cls-1" d="M67.43,27.43c0-.62,0-1.24,0-1.86a1.15,1.15,0,0,0-.11-0.32H67.22a0.68,0.68,0,0,0-.12.25c0,0.73,0,1.46,0,2.18C67.34,27.75,67.43,27.68,67.43,27.43Z" transform="translate(-0.1 -0.08)"/><path class="cls-1" d="M1.8,55a4.44,4.44,0,0,0,0-.53,0.82,0.82,0,0,0-.14-0.39,0.68,0.68,0,0,0-.33-0.23,1.8,1.8,0,0,0-.58-0.08H0.23V53.57H0.61l0.5,0,0.5,0H2l0.62,0H4.11a9.8,9.8,0,0,1,1.69.13A2.73,2.73,0,0,1,6.94,54a2.16,2.16,0,0,1,.65.68,1.76,1.76,0,0,1,.21.88,1.46,1.46,0,0,1-.12.58,1.82,1.82,0,0,1-.33.51,2.06,2.06,0,0,1-.51.4,1.89,1.89,0,0,1-.65.23v0a3.27,3.27,0,0,1,1.55.91,2.09,2.09,0,0,1,.55,1.44,2.8,2.8,0,0,1-.15.89,2.46,2.46,0,0,1-.51.87,2.74,2.74,0,0,1-.94.66,3.5,3.5,0,0,1-1.43.26H0.1V62.06H0.43A3.55,3.55,0,0,0,1.13,62a0.88,0.88,0,0,0,.42-0.19,0.7,0.7,0,0,0,.2-0.35A2.3,2.3,0,0,0,1.8,60.9V55ZM3,57.23H4.51q2,0,2-1.63a2.16,2.16,0,0,0-.12-0.71A1.51,1.51,0,0,0,6,54.28a2,2,0,0,0-.72-0.42,3.34,3.34,0,0,0-1.09-.15H3.61L3,53.75v3.48Zm0,3.27a1.47,1.47,0,0,0,.36,1.13,1.86,1.86,0,0,0,1.25.32,3,3,0,0,0,1.15-.2,2,2,0,0,0,.74-0.51,1.84,1.84,0,0,0,.39-0.72A3.06,3.06,0,0,0,7,59.69a2.18,2.18,0,0,0-.15-0.8,2,2,0,0,0-.46-0.7,2.32,2.32,0,0,0-.77-0.5,2.85,2.85,0,0,0-1.08-.19H3v3Z" transform="translate(-0.1 -0.08)"/><path class="cls-1" d="M10.29,58.29a2.88,2.88,0,0,1,.7-0.94,3,3,0,0,1,1-.57,3.28,3.28,0,0,1,1.09-.19,3.13,3.13,0,0,1,1.2.23,2.93,2.93,0,0,1,1.6,1.56,3,3,0,0,1-.63,3.27,2.94,2.94,0,0,1-.94.62,3,3,0,0,1-1.18.23,3.27,3.27,0,0,1-1.22-.23,3,3,0,0,1-1-.61,2.87,2.87,0,0,1-.65-0.92A2.79,2.79,0,0,1,10,59.58,2.94,2.94,0,0,1,10.29,58.29Zm1,2a3.22,3.22,0,0,0,.46,1,2.34,2.34,0,0,0,.7.65,1.63,1.63,0,0,0,.85.24A1.42,1.42,0,0,0,13.89,62a1.82,1.82,0,0,0,.57-0.44,2.35,2.35,0,0,0,.42-0.7,2.6,2.6,0,0,0,.16-1,3.63,3.63,0,0,0-.18-1.14,3.42,3.42,0,0,0-.47-0.94,2.38,2.38,0,0,0-.69-0.65,1.58,1.58,0,0,0-.83-0.24,1.44,1.44,0,0,0-.68.17,1.85,1.85,0,0,0-.57.46,2.4,2.4,0,0,0-.54,1.53A4.14,4.14,0,0,0,11.25,60.3Z" transform="translate(-0.1 -0.08)"/><path class="cls-1" d="M22.12,54.13A0.32,0.32,0,0,0,22,53.86a1.07,1.07,0,0,0-.44-0.12l-0.46-.06V53.44l2-.58v8.26a0.45,0.45,0,0,0,.2.46,0.7,0.7,0,0,0,.49,0l0.34-.1v0.3l-1.8.7H22.12v-1a4.23,4.23,0,0,1-2.18,1,1.92,1.92,0,0,1-.88-0.21,2.2,2.2,0,0,1-.72-0.58,2.91,2.91,0,0,1-.48-0.87,3.11,3.11,0,0,1-.18-1.06,3.29,3.29,0,0,1,.23-1.24,3.17,3.17,0,0,1,.65-1,3,3,0,0,1,1-.68,2.94,2.94,0,0,1,1.2-.25,3.66,3.66,0,0,1,.71.08,3.85,3.85,0,0,1,.67.19V54.13Zm0,3.9a2.7,2.7,0,0,0-.78-0.81A1.68,1.68,0,0,0,20.44,57a1.59,1.59,0,0,0-.75.18,1.74,1.74,0,0,0-.58.49,2.22,2.22,0,0,0-.37.74,3.24,3.24,0,0,0-.13.92,3.42,3.42,0,0,0,.14,1,2.85,2.85,0,0,0,.39.82,2,2,0,0,0,.58.56,1.33,1.33,0,0,0,.71.2,2,2,0,0,0,.76-0.19,5.26,5.26,0,0,0,.9-0.51V58Z" transform="translate(-0.1 -0.08)"/><path class="cls-1" d="M26.66,61.21a0.73,0.73,0,0,0,.82.84h0.24v0.27H24.55V62.06a1.43,1.43,0,0,0,.92-0.22,0.93,0.93,0,0,0,.25-0.73v-6.8a0.88,0.88,0,0,0-.07-0.42,0.46,0.46,0,0,0-.37-0.15l-0.63-.07V53.44l1.8-.58h0.21v8.35Z" transform="translate(-0.1 -0.08)"/><path class="cls-1" d="M29.8,58.75q0,0.15,0,.3t0,0.29a2.72,2.72,0,0,0,.18,1,2.46,2.46,0,0,0,.47.77,2.08,2.08,0,0,0,.68.5,1.93,1.93,0,0,0,.81.18,2.05,2.05,0,0,0,1-.22,2.83,2.83,0,0,0,.83-0.7L33.83,61a5.36,5.36,0,0,1-.5.54,4,4,0,0,1-.59.46,3,3,0,0,1-.68.32,2.32,2.32,0,0,1-.74.12,2.15,2.15,0,0,1-1-.22,2.37,2.37,0,0,1-.77-0.61,3,3,0,0,1-.52-0.91,3.3,3.3,0,0,1-.19-1.14,3.43,3.43,0,0,1,.18-1.1,3.05,3.05,0,0,1,.53-1,2.65,2.65,0,0,1,.85-0.68,2.49,2.49,0,0,1,1.15-.26,2.28,2.28,0,0,1,1.1.22,1.78,1.78,0,0,1,.6.52,2.91,2.91,0,0,1,.33.61,1.36,1.36,0,0,0,.29.48v0.32H29.8Zm2.93-.34a2.12,2.12,0,0,0-.5-1.13,1.18,1.18,0,0,0-.89-0.42,1.46,1.46,0,0,0-.38.06,1.14,1.14,0,0,0-.42.22,1.78,1.78,0,0,0-.39.47,3,3,0,0,0-.31.8h2.89Z" transform="translate(-0.1 -0.08)"/><path class="cls-1" d="M37.08,61.25a0.78,0.78,0,0,0,.23.58,1.12,1.12,0,0,0,.79.22v0.27H35V62.06a1.37,1.37,0,0,0,.91-0.23,1,1,0,0,0,.26-0.8V58.2a1,1,0,0,0-.08-0.52,0.59,0.59,0,0,0-.35-0.17L35,57.38V57.16l1.83-.63h0.21v4.73Zm-1-7.74a0.63,0.63,0,0,1,.43-0.15,0.65,0.65,0,0,1,.44.15,0.49,0.49,0,0,1,0,.76,0.65,0.65,0,0,1-.44.15,0.63,0.63,0,0,1-.43-0.15A0.5,0.5,0,0,1,36.07,53.51Z" transform="translate(-0.1 -0.08)"/><path class="cls-1" d="M39.36,58.42a0.66,0.66,0,0,1,0-.2,0.88,0.88,0,0,1,.2-0.46,3,3,0,0,1,.5-0.54,3.17,3.17,0,0,1,.68-0.44,1.62,1.62,0,0,1,.71-0.18,2.1,2.1,0,0,1,.75.17,1.62,1.62,0,0,1,.72.58,1.06,1.06,0,0,1,.13.21,1,1,0,0,1,.06.23,2.06,2.06,0,0,1,0,.32v2.34q0,0.42,0,.69a2.24,2.24,0,0,0,0,.42,0.37,0.37,0,0,0,.11.21,0.33,0.33,0,0,0,.21.06,1,1,0,0,0,.27,0,1.29,1.29,0,0,0,.42-0.27l0.07,0.21a5.39,5.39,0,0,1-.89.62,1.24,1.24,0,0,1-.5.15,0.51,0.51,0,0,1-.34-0.11,0.79,0.79,0,0,1-.2-0.24,0.85,0.85,0,0,1-.09-0.28,1.74,1.74,0,0,1,0-.23l-0.61.47a2.75,2.75,0,0,1-.43.26,1.24,1.24,0,0,1-.32.11l-0.27,0a1.37,1.37,0,0,1-1-.32,1.08,1.08,0,0,1-.34-0.84,1.06,1.06,0,0,1,.13-0.55,1.21,1.21,0,0,1,.36-0.38,2.22,2.22,0,0,1,.53-0.26q0.3-.11.64-0.19a5,5,0,0,0,.56-0.18,4.24,4.24,0,0,0,.7-0.35V58.31a3.63,3.63,0,0,0,0-.49,0.82,0.82,0,0,0-.21-0.41,1.3,1.3,0,0,0-.34-0.29A0.85,0.85,0,0,0,41.13,57a0.88,0.88,0,0,0-.61.23,0.64,0.64,0,0,0-.26.46,0.66,0.66,0,0,0,.07.27Zm2.79,1.28-0.39.2-0.44.2-0.55.23a1.83,1.83,0,0,0-.37.22,0.67,0.67,0,0,0-.2.26,0.91,0.91,0,0,0-.06.36,0.77,0.77,0,0,0,.25.61A0.84,0.84,0,0,0,41,62l0.17,0,0.21-.08,0.32-.18,0.49-.33V59.7Z" transform="translate(-0.1 -0.08)"/><path class="cls-1" d="M46.9,61.09a2.23,2.23,0,0,0,0,.48,0.59,0.59,0,0,0,.15.29,0.58,0.58,0,0,0,.29.15,2.09,2.09,0,0,0,.46,0v0.27H45V62.06a1,1,0,0,0,.7-0.24A0.87,0.87,0,0,0,46,61.17v-3a1.19,1.19,0,0,0-.07-0.51,0.51,0.51,0,0,0-.35-0.18l-0.48-.1V57.2l1.62-.59H46.9v1.1q0.72-.45,1.31-0.78a2.3,2.3,0,0,1,1.11-.33,1.31,1.31,0,0,1,1.11.53,2.64,2.64,0,0,1,.39,1.58q0,0.7,0,1.15t0,0.74q0,0.3,0,.49a3.82,3.82,0,0,0,0,.41,0.47,0.47,0,0,0,.17.42,1,1,0,0,0,.62.14h0.31v0.27h-3V62.06a1.69,1.69,0,0,0,.5-0.08,0.82,0.82,0,0,0,.3-0.18,1.7,1.7,0,0,0,.25-1q0-.78,0-2.19a2.31,2.31,0,0,0-.09-0.7,1.23,1.23,0,0,0-.25-0.46,0.9,0.9,0,0,0-.36-0.25,1.2,1.2,0,0,0-.41-0.07,1.91,1.91,0,0,0-.83.25,10.36,10.36,0,0,0-1,.62v3.08Z" transform="translate(-0.1 -0.08)"/><path class="cls-1" d="M63.18,62.32H56.88V62.06h0.46a1,1,0,0,0,.69-0.2,1,1,0,0,0,.2-0.73V54.89A1.18,1.18,0,0,0,58,54.08a1.2,1.2,0,0,0-.89-0.25h-0.2V53.57h4.15v0.27H60.56a4.67,4.67,0,0,0-.56,0,0.75,0.75,0,0,0-.36.13,0.5,0.5,0,0,0-.18.3,2.22,2.22,0,0,0,0,.52V61.3a0.53,0.53,0,0,0,.13.4,0.63,0.63,0,0,0,.44.12H62a1.8,1.8,0,0,0,.53-0.07A1.21,1.21,0,0,0,63,61.5,3.4,3.4,0,0,0,63.44,61L64,60.27h0.25Z" transform="translate(-0.1 -0.08)"/><path class="cls-1" d="M67.09,61.25a0.78,0.78,0,0,0,.23.58,1.12,1.12,0,0,0,.79.22v0.27H65V62.06a1.37,1.37,0,0,0,.91-0.23,1,1,0,0,0,.26-0.8V58.2a1,1,0,0,0-.08-0.52,0.58,0.58,0,0,0-.35-0.17L65,57.38V57.16l1.83-.63h0.21v4.73Zm-1-7.74a0.63,0.63,0,0,1,.43-0.15,0.65,0.65,0,0,1,.44.15,0.49,0.49,0,0,1,0,.76,0.65,0.65,0,0,1-.44.15,0.63,0.63,0,0,1-.43-0.15A0.5,0.5,0,0,1,66.08,53.51Z" transform="translate(-0.1 -0.08)"/><path class="cls-1" d="M70.73,57.58A8.65,8.65,0,0,1,72,56.82a2.12,2.12,0,0,1,.88-0.23,1.91,1.91,0,0,1,.89.22,2.47,2.47,0,0,1,.74.58,2.76,2.76,0,0,1,.5.87,3,3,0,0,1,.18,1,3.13,3.13,0,0,1-.25,1.26,3,3,0,0,1-.7,1,3.33,3.33,0,0,1-1,.67,3.39,3.39,0,0,1-1.3.25,6.28,6.28,0,0,1-.94-0.07l-1.14-.2V54.59q0-.27,0-0.43a0.53,0.53,0,0,0-.07-0.25,0.31,0.31,0,0,0-.18-0.12l-0.32-.06-0.39-.06V53.44l1.69-.58h0.23v4.72Zm0,3a1.58,1.58,0,0,0,.09.53,1.44,1.44,0,0,0,.27.47,1.38,1.38,0,0,0,.47.34,1.65,1.65,0,0,0,.7.13,1.78,1.78,0,0,0,.8-0.18,1.88,1.88,0,0,0,.62-0.49,2.19,2.19,0,0,0,.4-0.75,3.36,3.36,0,0,0,0-1.95,2.51,2.51,0,0,0-.4-0.78,1.93,1.93,0,0,0-.61-0.51,1.58,1.58,0,0,0-.76-0.19,2.92,2.92,0,0,0-1.58.66v2.7Z" transform="translate(-0.1 -0.08)"/><path class="cls-1" d="M78.38,61.3a0.76,0.76,0,0,0,.19.6,1.16,1.16,0,0,0,.72.16h0.53v0.27H76.49V62.06a1,1,0,0,0,.74-0.25,1.24,1.24,0,0,0,.2-0.8V57.75l-0.94-.34V57.17l1.6-.56h0.28V58.1h0l0.44-.71A3.3,3.3,0,0,1,79.17,57a0.91,0.91,0,0,1,.27-0.22,0.7,0.7,0,0,1,.3-0.06l0.2,0,0.27,0.11,0.3,0.09L81,57l-0.34.84-0.35-.08a1.9,1.9,0,0,1-.39-0.15l-0.24-.1a0.8,0.8,0,0,0-.25,0,0.46,0.46,0,0,0-.32.11,1.59,1.59,0,0,0-.23.26,7,7,0,0,0-.45.7V61.3Z" transform="translate(-0.1 -0.08)"/><path class="cls-1" d="M81.8,58.42a0.67,0.67,0,0,1,0-.2,0.89,0.89,0,0,1,.2-0.46,3,3,0,0,1,.5-0.54,3.17,3.17,0,0,1,.68-0.44,1.62,1.62,0,0,1,.71-0.18,2.1,2.1,0,0,1,.75.17,1.62,1.62,0,0,1,.72.58,1,1,0,0,1,.13.21,1,1,0,0,1,.06.23,2.07,2.07,0,0,1,0,.32v2.34q0,0.42,0,.69a2.26,2.26,0,0,0,0,.42,0.37,0.37,0,0,0,.11.21,0.33,0.33,0,0,0,.21.06,1,1,0,0,0,.27,0,1.29,1.29,0,0,0,.42-0.27l0.07,0.21a5.39,5.39,0,0,1-.89.62,1.24,1.24,0,0,1-.5.15,0.51,0.51,0,0,1-.34-0.11,0.79,0.79,0,0,1-.2-0.24,0.86,0.86,0,0,1-.09-0.28,1.77,1.77,0,0,1,0-.23L84,62.1a2.75,2.75,0,0,1-.43.26,1.25,1.25,0,0,1-.32.11l-0.27,0a1.37,1.37,0,0,1-1-.32,1.08,1.08,0,0,1-.34-0.84,1.05,1.05,0,0,1,.13-0.55,1.21,1.21,0,0,1,.36-0.38,2.21,2.21,0,0,1,.53-0.26Q83,60,83.33,60a5,5,0,0,0,.56-0.18,4.23,4.23,0,0,0,.7-0.35V58.31a3.63,3.63,0,0,0,0-.49,0.82,0.82,0,0,0-.21-0.41A1.29,1.29,0,0,0,84,57.12,0.85,0.85,0,0,0,83.56,57a0.88,0.88,0,0,0-.61.23,0.64,0.64,0,0,0-.26.46,0.66,0.66,0,0,0,.07.27Zm2.79,1.28-0.39.2-0.44.2-0.55.23a1.83,1.83,0,0,0-.37.22,0.67,0.67,0,0,0-.2.26,0.91,0.91,0,0,0-.06.36,0.77,0.77,0,0,0,.25.61,0.84,0.84,0,0,0,.58.23l0.17,0,0.21-.08,0.32-.18,0.49-.33V59.7Z" transform="translate(-0.1 -0.08)"/><path class="cls-1" d="M89.34,61.3a0.76,0.76,0,0,0,.19.6,1.16,1.16,0,0,0,.72.16h0.53v0.27H87.46V62.06a1,1,0,0,0,.74-0.25,1.24,1.24,0,0,0,.2-0.8V57.75l-0.94-.34V57.17l1.6-.56h0.28V58.1h0l0.44-.71A3.3,3.3,0,0,1,90.13,57a0.91,0.91,0,0,1,.27-0.22,0.7,0.7,0,0,1,.3-0.06l0.2,0,0.27,0.11,0.3,0.09L91.92,57l-0.34.84-0.35-.08a1.9,1.9,0,0,1-.39-0.15l-0.24-.1a0.8,0.8,0,0,0-.25,0,0.46,0.46,0,0,0-.32.11,1.59,1.59,0,0,0-.23.26,7,7,0,0,0-.45.7V61.3Z" transform="translate(-0.1 -0.08)"/><path class="cls-1" d="M95.13,61.25a0.78,0.78,0,0,0,.23.58,1.12,1.12,0,0,0,.79.22v0.27H93V62.06a1.37,1.37,0,0,0,.91-0.23,1,1,0,0,0,.26-0.8V58.2a1,1,0,0,0-.08-0.52,0.58,0.58,0,0,0-.35-0.17l-0.66-.13V57.16l1.83-.63h0.21v4.73Zm-1-7.74a0.63,0.63,0,0,1,.43-0.15,0.65,0.65,0,0,1,.44.15,0.49,0.49,0,0,1,0,.76,0.65,0.65,0,0,1-.44.15,0.63,0.63,0,0,1-.43-0.15A0.5,0.5,0,0,1,94.12,53.51Z" transform="translate(-0.1 -0.08)"/><path class="cls-1" d="M98.38,58.75c0,0.1,0,.2,0,0.3s0,0.19,0,.29a2.72,2.72,0,0,0,.18,1,2.46,2.46,0,0,0,.47.77,2.08,2.08,0,0,0,.68.5,1.93,1.93,0,0,0,.81.18,2.06,2.06,0,0,0,1-.22,2.83,2.83,0,0,0,.83-0.7L102.4,61a5.37,5.37,0,0,1-.5.54,4,4,0,0,1-.59.46,3,3,0,0,1-.68.32,2.32,2.32,0,0,1-.74.12,2.15,2.15,0,0,1-1-.22,2.36,2.36,0,0,1-.77-0.61,3,3,0,0,1-.52-0.91,3.3,3.3,0,0,1-.19-1.14,3.43,3.43,0,0,1,.18-1.1,3,3,0,0,1,.53-1A2.64,2.64,0,0,1,99,56.85a2.49,2.49,0,0,1,1.15-.26,2.28,2.28,0,0,1,1.1.22,1.78,1.78,0,0,1,.6.52,2.9,2.9,0,0,1,.33.61,1.36,1.36,0,0,0,.29.48v0.32H98.38Zm2.93-.34a2.12,2.12,0,0,0-.5-1.13,1.18,1.18,0,0,0-.89-0.42,1.45,1.45,0,0,0-.38.06,1.14,1.14,0,0,0-.42.22,1.78,1.78,0,0,0-.39.47,3,3,0,0,0-.31.8h2.89Z" transform="translate(-0.1 -0.08)"/><path class="cls-1" d="M104,60.9a1.78,1.78,0,0,0,.49,1,1.19,1.19,0,0,0,.84.34,1,1,0,0,0,.71-0.27,0.87,0.87,0,0,0,.29-0.65,0.92,0.92,0,0,0-.08-0.4,1.91,1.91,0,0,0-.37-0.46,4.28,4.28,0,0,0-.75-0.61q-0.37-.23-0.68-0.46a2.22,2.22,0,0,1-.49-0.49,1.19,1.19,0,0,1-.19-0.7,1.44,1.44,0,0,1,.5-1.14,1.91,1.91,0,0,1,1.3-.44,3,3,0,0,1,1.13.23l0,1.28h-0.24a1.43,1.43,0,0,0-.39-0.85,1,1,0,0,0-.74-0.32,0.9,0.9,0,0,0-.61.22,0.72,0.72,0,0,0-.25.57,0.81,0.81,0,0,0,.2.54,2.81,2.81,0,0,0,.49.44q0.29,0.21.63,0.42a4.39,4.39,0,0,1,.63.46,2.55,2.55,0,0,1,.49.57,1.37,1.37,0,0,1,.2.74,1.52,1.52,0,0,1-.13.63,1.59,1.59,0,0,1-.92.85,2.1,2.1,0,0,1-1,.09l-0.27-.07-0.2-.06-0.18,0a0.28,0.28,0,0,0-.24.17H103.9l-0.15-1.58H104Z" transform="translate(-0.1 -0.08)"/><path class="cls-1" d="M5.77,67.67V67.8a0.69,0.69,0,0,0-.5.16,0.7,0.7,0,0,0-.14.49v1.9A2,2,0,0,1,5,71a1.56,1.56,0,0,1-.36.58A1.81,1.81,0,0,1,4,72a2.62,2.62,0,0,1-1,.16A2.6,2.6,0,0,1,2.16,72a1.83,1.83,0,0,1-.63-0.37,1.54,1.54,0,0,1-.38-0.56A1.87,1.87,0,0,1,1,70.39V68.33a1.06,1.06,0,0,0,0-.27A0.31,0.31,0,0,0,.89,67.9a0.39,0.39,0,0,0-.19-0.08l-0.3,0V67.67H2.22V67.8H2.16a0.7,0.7,0,0,0-.43.1,0.51,0.51,0,0,0-.13.41v2A1.5,1.5,0,0,0,2,71.39a1.64,1.64,0,0,0,1.2.4,2.45,2.45,0,0,0,.58-0.07,1.4,1.4,0,0,0,.52-0.24A1.21,1.21,0,0,0,4.67,71a1.77,1.77,0,0,0,.14-0.75V68.63a2.71,2.71,0,0,0,0-.41A0.52,0.52,0,0,0,4.69,68a0.37,0.37,0,0,0-.21-0.12l-0.36,0V67.67H5.77Z" transform="translate(-0.1 -0.08)"/><path class="cls-1" d="M11.62,72.1L8,68.28v3a1.39,1.39,0,0,0,0,.31,0.34,0.34,0,0,0,.11.19,0.44,0.44,0,0,0,.21.09,2.13,2.13,0,0,0,.36,0V72H7.05V71.91h0a0.68,0.68,0,0,0,.45-0.11,0.46,0.46,0,0,0,.12-0.36V68a1,1,0,0,0-.59-0.18V67.67h1.1l3.31,3.46v-2.8a1,1,0,0,0,0-.26,0.28,0.28,0,0,0-.11-0.15,0.49,0.49,0,0,0-.21-0.08l-0.34,0V67.67h1.65V67.8l-0.32,0a0.53,0.53,0,0,0-.2.06,0.21,0.21,0,0,0-.09.11,0.54,0.54,0,0,0,0,.18V72.1H11.62Z" transform="translate(-0.1 -0.08)"/><path class="cls-1" d="M15.58,72H13.87V71.91l0.26,0a0.32,0.32,0,0,0,.16-0.1,0.39,0.39,0,0,0,.08-0.18,1.61,1.61,0,0,0,0-.29v-3a0.51,0.51,0,0,0-.12-0.39,0.68,0.68,0,0,0-.41-0.12V67.67h1.71V67.8a0.75,0.75,0,0,0-.46.11,0.59,0.59,0,0,0-.13.46v3a1.16,1.16,0,0,0,0,.26,0.35,0.35,0,0,0,.09.17,0.37,0.37,0,0,0,.18.09,1.29,1.29,0,0,0,.3,0V72Z" transform="translate(-0.1 -0.08)"/><path class="cls-1" d="M19.12,72.16L17.6,68.35a2.34,2.34,0,0,0-.12-0.27,0.53,0.53,0,0,0-.13-0.17,0.44,0.44,0,0,0-.18-0.08,1.17,1.17,0,0,0-.26,0V67.67h1.94V67.8a1.18,1.18,0,0,0-.63.13,0.29,0.29,0,0,0,0,.36l1.27,3.15,1.11-2.91a1.39,1.39,0,0,0,.12-0.44,0.23,0.23,0,0,0-.15-0.23A1.35,1.35,0,0,0,20,67.8V67.67h1.63V67.8a0.65,0.65,0,0,0-.44.14,1.15,1.15,0,0,0-.29.47l-1.45,3.75H19.12Z" transform="translate(-0.1 -0.08)"/><path class="cls-1" d="M26,70.45H25.84a1.59,1.59,0,0,0-.06-0.3A0.39,0.39,0,0,0,25.69,70a0.3,0.3,0,0,0-.14-0.07l-0.19,0H24.17V71.4a0.4,0.4,0,0,0,.09.32,0.47,0.47,0,0,0,.29.07h1.08a1.06,1.06,0,0,0,.31,0,0.51,0.51,0,0,0,.22-0.13,0.78,0.78,0,0,0,.16-0.25A3.06,3.06,0,0,0,26.45,71h0.13l-0.11,1H22.73V71.91h0.2a1.48,1.48,0,0,0,.34,0,0.43,0.43,0,0,0,.2-0.1,0.34,0.34,0,0,0,.09-0.18,1.26,1.26,0,0,0,0-.27v-3a0.69,0.69,0,0,0-.11-0.43A0.58,0.58,0,0,0,23,67.8H22.87V67.67h3.38l0.06,1H26.18a2.17,2.17,0,0,0-.08-0.37A0.73,0.73,0,0,0,26,68.06,0.34,0.34,0,0,0,25.83,68l-0.17,0H24.17v1.72h1.26a0.36,0.36,0,0,0,.29-0.11,0.77,0.77,0,0,0,.12-0.42H26v1.34Z" transform="translate(-0.1 -0.08)"/><path class="cls-1" d="M29.27,71.39a0.52,0.52,0,0,0,.13.42,0.7,0.7,0,0,0,.43.11H30V72H28V71.91h0.12a0.47,0.47,0,0,0,.56-0.58v-3a0.67,0.67,0,0,0-.11-0.45,0.57,0.57,0,0,0-.42-0.12H28V67.67h1.77a3.29,3.29,0,0,1,.84.09,1.78,1.78,0,0,1,.59.26,1.09,1.09,0,0,1,.34.4,1.11,1.11,0,0,1,.11.5,1.09,1.09,0,0,1-.25.71,1.34,1.34,0,0,1-.69.43l0.38,0.32,0.43,0.41,0.56,0.56a2.93,2.93,0,0,0,.65.5,1.76,1.76,0,0,0,.74.21v0.13a4.71,4.71,0,0,1-.77,0A1.86,1.86,0,0,1,32.16,72a1.81,1.81,0,0,1-.43-0.27q-0.2-.17-0.43-0.4l-0.46-.46q-0.23-.23-0.42-0.39l-0.31-.24H29.27v1.19Zm0-1.32h0.44A2.09,2.09,0,0,0,30.24,70a1,1,0,0,0,.41-0.21,1,1,0,0,0,.26-0.37A1.41,1.41,0,0,0,31,68.9a1.59,1.59,0,0,0-.06-0.46,0.87,0.87,0,0,0-.22-0.37,1.06,1.06,0,0,0-.42-0.25,2.17,2.17,0,0,0-.67-0.09H29.27v2.31Z" transform="translate(-0.1 -0.08)"/><path class="cls-1" d="M34.95,71a1.27,1.27,0,0,0,.44.73,1.17,1.17,0,0,0,.75.26,1.22,1.22,0,0,0,.35-0.05,1,1,0,0,0,.31-0.15A0.78,0.78,0,0,0,37,71.51a0.75,0.75,0,0,0,.08-0.37,0.69,0.69,0,0,0-.17-0.45,2.4,2.4,0,0,0-.42-0.38q-0.25-.18-0.54-0.36a5.26,5.26,0,0,1-.54-0.37A2.1,2.1,0,0,1,35,69.13a0.93,0.93,0,0,1-.17-0.55,0.88,0.88,0,0,1,.09-0.4,1,1,0,0,1,.26-0.32,1.27,1.27,0,0,1,.4-0.21,1.53,1.53,0,0,1,.5-0.08,1.94,1.94,0,0,1,.36,0l0.25,0.06,0.18,0.06a0.49,0.49,0,0,0,.17,0,0.16,0.16,0,0,0,.13-0.07H37.3l0.12,0.89H37.3A1.32,1.32,0,0,0,36.84,68a1.12,1.12,0,0,0-.68-0.23,0.86,0.86,0,0,0-.57.18,0.59,0.59,0,0,0-.22.48,0.66,0.66,0,0,0,.17.45,2.44,2.44,0,0,0,.42.37q0.25,0.18.54,0.35a4.61,4.61,0,0,1,.54.37,2.09,2.09,0,0,1,.42.45,1,1,0,0,1,.17.57,1.05,1.05,0,0,1-.11.48,1.2,1.2,0,0,1-.3.38,1.39,1.39,0,0,1-.45.25,1.74,1.74,0,0,1-.57.09l-0.3,0-0.29-.07L35.36,72l-0.14,0a0.16,0.16,0,0,0-.14.08H35L34.81,71h0.13Z" transform="translate(-0.1 -0.08)"/><path class="cls-1" d="M41,72H39.25V71.91l0.26,0a0.32,0.32,0,0,0,.16-0.1,0.39,0.39,0,0,0,.08-0.18,1.61,1.61,0,0,0,0-.29v-3a0.51,0.51,0,0,0-.12-0.39,0.68,0.68,0,0,0-.41-0.12V67.67H41V67.8a0.75,0.75,0,0,0-.46.11,0.59,0.59,0,0,0-.13.46v3a1.16,1.16,0,0,0,0,.26,0.35,0.35,0,0,0,.09.17,0.37,0.37,0,0,0,.18.09,1.29,1.29,0,0,0,.3,0V72Z" transform="translate(-0.1 -0.08)"/><path class="cls-1" d="M44.94,71.4a0.55,0.55,0,0,0,.12.4,0.64,0.64,0,0,0,.44.11h0.26V72H43.54V71.91H43.8a0.64,0.64,0,0,0,.44-0.11,0.55,0.55,0,0,0,.12-0.4V67.92H43.13a0.44,0.44,0,0,0-.18,0,0.34,0.34,0,0,0-.14.12,0.88,0.88,0,0,0-.11.24,3.53,3.53,0,0,0-.09.38H42.49l0.11-1.14h0.13a0.1,0.1,0,0,0,.08.08l0.14,0h3.39l0.14,0a0.11,0.11,0,0,0,.08-0.08h0.13L46.8,68.7H46.68a3.62,3.62,0,0,0-.09-0.38,0.9,0.9,0,0,0-.11-0.24A0.34,0.34,0,0,0,46.35,68a0.44,0.44,0,0,0-.18,0H44.94V71.4Z" transform="translate(-0.1 -0.08)"/><path class="cls-1" d="M51.62,68.31a0.37,0.37,0,0,0,.07-0.4,0.61,0.61,0,0,0-.43-0.11V67.67h1.59V67.8a1,1,0,0,0-.55.17,1.34,1.34,0,0,0-.33.39l-1.17,2v1.06a0.55,0.55,0,0,0,.12.4,0.63,0.63,0,0,0,.44.12h0.09V72H49.52V71.91h0.13a0.61,0.61,0,0,0,.45-0.12,0.54,0.54,0,0,0,.12-0.38v-1l-1.25-2a3,3,0,0,0-.23-0.33,1,1,0,0,0-.21-0.2,0.64,0.64,0,0,0-.23-0.09L48,67.8V67.67h1.87V67.8a1.64,1.64,0,0,0-.32,0,0.23,0.23,0,0,0-.15.08,0.17,0.17,0,0,0,0,.14,0.9,0.9,0,0,0,.11.21L50.63,70Z" transform="translate(-0.1 -0.08)"/><path class="cls-1" d="M62.14,70.72a2.39,2.39,0,0,1-.54.76,2.48,2.48,0,0,1-.8.5,2.61,2.61,0,0,1-1,.18,3,3,0,0,1-1-.16,2.48,2.48,0,0,1-.81-0.45,2.2,2.2,0,0,1-.55-0.7,2,2,0,0,1-.2-0.9,2.41,2.41,0,0,1,.19-1A2.2,2.2,0,0,1,58,68.23a2.47,2.47,0,0,1,.82-0.49,2.94,2.94,0,0,1,1-.18,2.76,2.76,0,0,1,.95.16,2.51,2.51,0,0,1,.78.45,2.18,2.18,0,0,1,.54.69,1.92,1.92,0,0,1,.2.87A2.35,2.35,0,0,1,62.14,70.72Zm-0.61-1.65a2.14,2.14,0,0,0-.41-0.71,1.86,1.86,0,0,0-.63-0.46,1.92,1.92,0,0,0-.8-0.17,1.53,1.53,0,0,0-.79.19,1.74,1.74,0,0,0-.54.49,2,2,0,0,0-.31.65,2.58,2.58,0,0,0-.09.67,2.52,2.52,0,0,0,.16.91,2.22,2.22,0,0,0,.43.71,1.94,1.94,0,0,0,.64.47A1.91,1.91,0,0,0,60,72a1.56,1.56,0,0,0,.75-0.17,1.59,1.59,0,0,0,.53-0.46,2,2,0,0,0,.31-0.65,2.72,2.72,0,0,0,.1-0.74A2.65,2.65,0,0,0,61.54,69.07Z" transform="translate(-0.1 -0.08)"/><path class="cls-1" d="M67,70.37H66.92a0.63,0.63,0,0,0-.13-0.42,0.52,0.52,0,0,0-.37-0.11h-1.3v1.54a1.24,1.24,0,0,0,0,.25,0.32,0.32,0,0,0,.09.17,0.38,0.38,0,0,0,.19.09,1.42,1.42,0,0,0,.32,0V72H64V71.91a1.06,1.06,0,0,0,.26,0,0.31,0.31,0,0,0,.16-0.11,0.43,0.43,0,0,0,.07-0.2,2.65,2.65,0,0,0,0-.34V68.47a2.65,2.65,0,0,0,0-.29,0.47,0.47,0,0,0-.07-0.2,0.33,0.33,0,0,0-.16-0.12,0.8,0.8,0,0,0-.29,0V67.67h3.15V68.5H67a0.67,0.67,0,0,0-.13-0.44,0.61,0.61,0,0,0-.45-0.13H65.12v1.65h1.39a0.4,0.4,0,0,0,.41-0.45H67v1.24Z" transform="translate(-0.1 -0.08)"/><path class="cls-1" d="M76.59,70.72a2.38,2.38,0,0,1-.54.76,2.48,2.48,0,0,1-.8.5,2.61,2.61,0,0,1-1,.18,3,3,0,0,1-1-.16,2.47,2.47,0,0,1-.81-0.45,2.2,2.2,0,0,1-.55-0.7,2,2,0,0,1-.2-0.9,2.41,2.41,0,0,1,.19-1,2.2,2.2,0,0,1,.53-0.76,2.47,2.47,0,0,1,.82-0.49,2.94,2.94,0,0,1,1-.18,2.76,2.76,0,0,1,.95.16,2.51,2.51,0,0,1,.78.45,2.18,2.18,0,0,1,.54.69,1.92,1.92,0,0,1,.2.87A2.35,2.35,0,0,1,76.59,70.72ZM76,69.07a2.14,2.14,0,0,0-.41-0.71,1.86,1.86,0,0,0-.63-0.46,1.92,1.92,0,0,0-.8-0.17,1.53,1.53,0,0,0-.79.19,1.74,1.74,0,0,0-.54.49,2,2,0,0,0-.31.65,2.58,2.58,0,0,0-.09.67,2.52,2.52,0,0,0,.16.91,2.23,2.23,0,0,0,.43.71,1.94,1.94,0,0,0,.64.47,1.91,1.91,0,0,0,.79.17,1.56,1.56,0,0,0,.75-0.17,1.59,1.59,0,0,0,.53-0.46A2,2,0,0,0,76,70.71a2.72,2.72,0,0,0,.1-0.74A2.65,2.65,0,0,0,76,69.07Z" transform="translate(-0.1 -0.08)"/><path class="cls-1" d="M79,71.4a0.51,0.51,0,0,0-.17.38,0.35,0.35,0,0,0,.38.13h0.14V72H77.68V71.91A1.65,1.65,0,0,0,78,71.86a1,1,0,0,0,.27-0.12,1.52,1.52,0,0,0,.27-0.22,4.82,4.82,0,0,0,.32-0.36l1.09-1.32-1.09-1.37q-0.16-.2-0.29-0.33a1.11,1.11,0,0,0-.25-0.2,0.92,0.92,0,0,0-.27-0.1l-0.36,0V67.67h2.1V67.8a2,2,0,0,0-.36,0,0.27,0.27,0,0,0-.17.08,0.13,0.13,0,0,0,0,.13,0.68,0.68,0,0,0,.11.18l1,1.18,0.76-.91A1.15,1.15,0,0,0,81.38,68q0-.16-0.29-0.16h-0.2V67.67h1.69V67.8a1.22,1.22,0,0,0-.33,0A1.12,1.12,0,0,0,82,68a1.8,1.8,0,0,0-.28.22,3.47,3.47,0,0,0-.3.32l-0.9,1.1,1.32,1.65,0.26,0.31a1,1,0,0,0,.22.19,0.8,0.8,0,0,0,.25.09l0.34,0V72H80.93V71.91a0.55,0.55,0,0,0,.44-0.11,0.51,0.51,0,0,0-.2-0.44l-1.06-1.3Z" transform="translate(-0.1 -0.08)"/><path class="cls-1" d="M87.22,70.37H87.1A0.63,0.63,0,0,0,87,69.94a0.52,0.52,0,0,0-.37-0.11H85.3v1.54a1.24,1.24,0,0,0,0,.25,0.32,0.32,0,0,0,.09.17,0.38,0.38,0,0,0,.19.09,1.42,1.42,0,0,0,.32,0V72H84.2V71.91a1.06,1.06,0,0,0,.26,0,0.31,0.31,0,0,0,.16-0.11,0.43,0.43,0,0,0,.07-0.2,2.65,2.65,0,0,0,0-.34V68.47a2.65,2.65,0,0,0,0-.29,0.47,0.47,0,0,0-.07-0.2,0.33,0.33,0,0,0-.16-0.12,0.8,0.8,0,0,0-.29,0V67.67h3.15V68.5H87.22a0.67,0.67,0,0,0-.13-0.44,0.61,0.61,0,0,0-.45-0.13H85.3v1.65h1.39a0.4,0.4,0,0,0,.41-0.45h0.12v1.24Z" transform="translate(-0.1 -0.08)"/><path class="cls-1" d="M93.82,70.72a2.38,2.38,0,0,1-.54.76,2.48,2.48,0,0,1-.8.5,2.61,2.61,0,0,1-1,.18,3,3,0,0,1-1-.16,2.47,2.47,0,0,1-.81-0.45,2.2,2.2,0,0,1-.55-0.7A2,2,0,0,1,89,70a2.41,2.41,0,0,1,.19-1,2.2,2.2,0,0,1,.53-0.76,2.47,2.47,0,0,1,.82-0.49,2.94,2.94,0,0,1,1-.18,2.76,2.76,0,0,1,.95.16,2.51,2.51,0,0,1,.78.45,2.18,2.18,0,0,1,.54.69,1.92,1.92,0,0,1,.2.87A2.35,2.35,0,0,1,93.82,70.72Zm-0.61-1.65a2.14,2.14,0,0,0-.41-0.71,1.86,1.86,0,0,0-.63-0.46,1.92,1.92,0,0,0-.8-0.17,1.53,1.53,0,0,0-.79.19,1.74,1.74,0,0,0-.54.49,2,2,0,0,0-.31.65,2.58,2.58,0,0,0-.09.67,2.52,2.52,0,0,0,.16.91,2.23,2.23,0,0,0,.43.71,1.94,1.94,0,0,0,.64.47,1.91,1.91,0,0,0,.79.17,1.56,1.56,0,0,0,.75-0.17,1.59,1.59,0,0,0,.53-0.46,2,2,0,0,0,.31-0.65,2.72,2.72,0,0,0,.1-0.74A2.65,2.65,0,0,0,93.21,69.07Z" transform="translate(-0.1 -0.08)"/><path class="cls-1" d="M96.78,71.39a0.52,0.52,0,0,0,.13.42,0.7,0.7,0,0,0,.43.11h0.16V72h-2V71.91h0.12a0.64,0.64,0,0,0,.44-0.12,0.64,0.64,0,0,0,.13-0.47v-3a0.67,0.67,0,0,0-.11-0.45,0.57,0.57,0,0,0-.42-0.12H95.51V67.67h1.77a3.29,3.29,0,0,1,.84.09,1.78,1.78,0,0,1,.59.26,1.09,1.09,0,0,1,.34.4,1.11,1.11,0,0,1,.11.5,1.09,1.09,0,0,1-.25.71,1.34,1.34,0,0,1-.69.43l0.38,0.32L99,70.73l0.56,0.56a2.93,2.93,0,0,0,.65.5A1.76,1.76,0,0,0,101,72v0.13a4.71,4.71,0,0,1-.77,0A1.86,1.86,0,0,1,99.67,72a1.81,1.81,0,0,1-.43-0.27q-0.2-.17-0.43-0.4l-0.46-.46q-0.23-.23-0.42-0.39l-0.31-.24H96.78v1.19Zm0-1.32h0.44A2.09,2.09,0,0,0,97.75,70a1,1,0,0,0,.41-0.21,1,1,0,0,0,.26-0.37,1.41,1.41,0,0,0,.09-0.54,1.59,1.59,0,0,0-.06-0.46,0.87,0.87,0,0,0-.22-0.37,1.06,1.06,0,0,0-.42-0.25,2.17,2.17,0,0,0-.67-0.09H96.78v2.31Z" transform="translate(-0.1 -0.08)"/><path class="cls-1" d="M102.79,68.37a1.34,1.34,0,0,0,0-.28,0.35,0.35,0,0,0-.09-0.18,0.34,0.34,0,0,0-.17-0.09l-0.26,0h-0.14V67.67l0.45,0,0.55,0,0.6,0h0.58a3.9,3.9,0,0,1,1.2.17,2.37,2.37,0,0,1,.83.45,1.78,1.78,0,0,1,.49.67,2.13,2.13,0,0,1,.16.82,2.33,2.33,0,0,1-.15.82,2.19,2.19,0,0,1-.48.75,2.5,2.5,0,0,1-.81.55,2.86,2.86,0,0,1-1.16.21h-2.25V71.91h0.12a0.7,0.7,0,0,0,.42-0.1,0.5,0.5,0,0,0,.13-0.41v-3Zm0.58,3.15a1.3,1.3,0,0,0,0,.18,0.18,0.18,0,0,0,.07.12,0.38,0.38,0,0,0,.17.07l0.33,0a5.72,5.72,0,0,0,.61,0,2.26,2.26,0,0,0,.46-0.09,1.53,1.53,0,0,0,.37-0.18,2.11,2.11,0,0,0,.33-0.27,1.45,1.45,0,0,0,.2-0.24,2,2,0,0,0,.19-0.34,2.54,2.54,0,0,0,.14-0.43,2.18,2.18,0,0,0,.06-0.51,2.7,2.7,0,0,0-.12-0.8,1.72,1.72,0,0,0-.44-0.72,1.76,1.76,0,0,0-.28-0.23,1.83,1.83,0,0,0-.38-0.18,2.61,2.61,0,0,0-.5-0.12,4.47,4.47,0,0,0-.65,0h-0.36l-0.2,0v3.76Z" transform="translate(-0.1 -0.08)"/></svg>